G04 (created by PCBNEW (2013-07-24 BZR 4024)-stable) date Tue 25 Nov 2014 11:30:04 AM NZDT*
%MOIN*%
G04 Gerber Fmt 3.4, Leading zero omitted, Abs format*
%FSLAX34Y34*%
G01*
G70*
G90*
G04 APERTURE LIST*
%ADD10C,0.00590551*%
%ADD11R,0.0787402X0.0787402*%
%ADD12C,0.0787402*%
%ADD13R,0.05X0.1*%
%ADD14O,0.00984252X0.0275591*%
%ADD15O,0.0275591X0.00984252*%
%ADD16R,0.125984X0.125984*%
%ADD17R,0.0748X0.0669*%
%ADD18C,0.0669*%
%ADD19R,0.0315X0.025*%
%ADD20R,0.045X0.025*%
%ADD21R,0.025X0.045*%
%ADD22R,0.036X0.036*%
%ADD23R,0.0314X0.0314*%
%ADD24R,0.055X0.055*%
%ADD25C,0.055*%
%ADD26R,0.06X0.06*%
%ADD27C,0.06*%
%ADD28C,0.035*%
%ADD29C,0.0255906*%
%ADD30C,0.01*%
%ADD31C,0.019685*%
%ADD32C,0.00984252*%
G04 APERTURE END LIST*
G54D10*
G54D11*
X27791Y-27850D03*
G54D12*
X25744Y-27850D03*
X26767Y-28874D03*
X26767Y-26944D03*
G54D13*
X27781Y-18204D03*
X28981Y-18204D03*
G54D14*
X24858Y-21137D03*
G54D15*
X24622Y-21374D03*
X24622Y-21570D03*
X24622Y-21767D03*
X24622Y-21964D03*
X24622Y-22161D03*
X24622Y-22358D03*
X24622Y-22555D03*
X24622Y-22751D03*
G54D14*
X24858Y-22988D03*
X25055Y-22988D03*
X25251Y-22988D03*
X25448Y-22988D03*
X25645Y-22988D03*
X25842Y-22988D03*
X26039Y-22988D03*
X26236Y-22988D03*
G54D15*
X26472Y-22751D03*
X26472Y-22751D03*
X26472Y-22555D03*
X26472Y-22358D03*
X26472Y-22161D03*
X26472Y-21964D03*
X26472Y-21767D03*
X26472Y-21570D03*
X26472Y-21374D03*
G54D14*
X26236Y-21137D03*
X26039Y-21137D03*
X25842Y-21137D03*
X25645Y-21137D03*
X25448Y-21137D03*
X25251Y-21137D03*
X25055Y-21137D03*
X24858Y-21137D03*
G54D16*
X25547Y-22062D03*
G54D17*
X28803Y-23062D03*
G54D18*
X27803Y-23062D03*
X28803Y-22062D03*
X27803Y-22062D03*
X28803Y-21062D03*
X27803Y-21062D03*
G54D19*
X23834Y-22359D03*
X23834Y-21759D03*
G54D20*
X24838Y-24134D03*
X24838Y-23534D03*
G54D21*
X28495Y-24011D03*
X29095Y-24011D03*
G54D20*
X24799Y-19558D03*
X24799Y-20158D03*
X26570Y-19558D03*
X26570Y-20158D03*
X28303Y-19518D03*
X28303Y-20118D03*
G54D22*
X25580Y-24853D03*
X25580Y-24153D03*
X26380Y-24503D03*
G54D23*
X27358Y-20113D03*
X27358Y-19523D03*
X25625Y-20153D03*
X25625Y-19563D03*
X23854Y-20153D03*
X23854Y-19563D03*
G54D20*
X23854Y-18504D03*
X23854Y-17904D03*
G54D24*
X24783Y-18204D03*
G54D25*
X25783Y-18204D03*
X26783Y-18204D03*
G54D26*
X24208Y-26027D03*
G54D27*
X24208Y-25027D03*
G54D28*
X26925Y-22181D03*
X27811Y-24011D03*
G54D29*
X26688Y-23559D03*
X28657Y-24622D03*
G54D28*
X28342Y-25291D03*
G54D29*
X27165Y-25866D03*
X25547Y-25448D03*
X23933Y-20724D03*
G54D28*
X29137Y-25137D03*
X23661Y-24480D03*
X23661Y-30059D03*
X29149Y-30102D03*
X26992Y-24484D03*
X28070Y-24358D03*
X27035Y-21019D03*
X26732Y-25452D03*
X26295Y-26240D03*
X28401Y-18192D03*
X25098Y-24940D03*
G54D29*
X23893Y-23755D03*
X25429Y-23480D03*
G54D30*
X25271Y-23795D02*
X26019Y-23795D01*
X23834Y-22359D02*
X23834Y-23185D01*
X24484Y-23834D02*
X23834Y-23185D01*
X25232Y-23834D02*
X24484Y-23834D01*
X25232Y-23834D02*
X25271Y-23795D01*
X26236Y-24011D02*
X27811Y-24011D01*
X26019Y-23795D02*
X26236Y-24011D01*
G54D31*
X24208Y-26027D02*
X24208Y-26314D01*
X24208Y-26314D02*
X25744Y-27850D01*
X25783Y-18204D02*
X26452Y-18874D01*
X26452Y-18874D02*
X27112Y-18874D01*
X27112Y-18874D02*
X27781Y-18204D01*
G54D30*
X24562Y-21964D02*
X24346Y-21964D01*
X24346Y-21964D02*
X23952Y-22358D01*
X23952Y-22358D02*
X23834Y-22359D01*
X24562Y-22358D02*
X23835Y-22358D01*
X23835Y-22358D02*
X23834Y-22359D01*
X28495Y-24011D02*
X28165Y-24011D01*
X28165Y-24011D02*
X27811Y-24011D01*
X26531Y-22555D02*
X26708Y-22555D01*
X26708Y-22555D02*
X26925Y-22338D01*
X26925Y-22338D02*
X26925Y-22181D01*
G54D31*
X27803Y-24003D02*
X27803Y-23062D01*
X27811Y-24011D02*
X27803Y-24003D01*
G54D30*
X26236Y-21078D02*
X26826Y-20488D01*
X27933Y-20488D02*
X28303Y-20118D01*
X26826Y-20488D02*
X27933Y-20488D01*
X26039Y-21078D02*
X26039Y-20862D01*
X26570Y-20330D02*
X26570Y-20158D01*
X26039Y-20862D02*
X26570Y-20330D01*
X25842Y-21078D02*
X25842Y-20625D01*
X24799Y-20370D02*
X24799Y-20158D01*
X24917Y-20488D02*
X24799Y-20370D01*
X25704Y-20488D02*
X24917Y-20488D01*
X25842Y-20625D02*
X25704Y-20488D01*
X26236Y-23106D02*
X26688Y-23559D01*
X26236Y-23106D02*
X26236Y-23047D01*
G54D32*
X28803Y-23062D02*
X28803Y-24476D01*
X28803Y-24476D02*
X28657Y-24622D01*
G54D30*
X28657Y-24622D02*
X28645Y-24610D01*
X26039Y-23047D02*
X26039Y-23500D01*
X27200Y-22665D02*
X27803Y-22062D01*
X27200Y-23598D02*
X27200Y-22665D01*
X26964Y-23834D02*
X27200Y-23598D01*
X26374Y-23834D02*
X26964Y-23834D01*
X26039Y-23500D02*
X26374Y-23834D01*
X29095Y-24538D02*
X28342Y-25291D01*
X27165Y-25866D02*
X25992Y-25866D01*
X25992Y-25866D02*
X25547Y-25448D01*
X23933Y-20724D02*
X25271Y-20724D01*
X25271Y-20724D02*
X25448Y-20901D01*
X25448Y-21078D02*
X25448Y-20901D01*
X29095Y-24538D02*
X29095Y-24011D01*
X29095Y-24011D02*
X29095Y-23908D01*
X29095Y-23908D02*
X29346Y-23657D01*
X29346Y-23657D02*
X29346Y-21606D01*
X29346Y-21606D02*
X28803Y-21062D01*
X26531Y-22751D02*
X26787Y-22751D01*
X28291Y-21551D02*
X28803Y-22062D01*
X27535Y-21551D02*
X28291Y-21551D01*
X27279Y-21807D02*
X27535Y-21551D01*
X27279Y-22259D02*
X27279Y-21807D01*
X26787Y-22751D02*
X27279Y-22259D01*
X23854Y-17904D02*
X24026Y-17732D01*
X26783Y-17944D02*
X26783Y-18204D01*
X26570Y-17732D02*
X26783Y-17944D01*
X24026Y-17732D02*
X26570Y-17732D01*
X23704Y-30102D02*
X23661Y-30059D01*
X29149Y-30102D02*
X23704Y-30102D01*
X26992Y-24484D02*
X27944Y-24484D01*
X27944Y-24484D02*
X28070Y-24358D01*
X27803Y-21062D02*
X27078Y-21062D01*
X27078Y-21062D02*
X27035Y-21019D01*
G54D31*
X28981Y-18204D02*
X28413Y-18204D01*
X28413Y-18204D02*
X28401Y-18192D01*
G54D30*
X25625Y-19563D02*
X25665Y-19523D01*
X25665Y-19523D02*
X25665Y-19188D01*
X27358Y-19523D02*
X27358Y-19188D01*
G54D31*
X28981Y-18204D02*
X27997Y-19188D01*
X27997Y-19188D02*
X27358Y-19188D01*
X27358Y-19188D02*
X25665Y-19188D01*
X25665Y-19188D02*
X25251Y-19188D01*
G54D30*
X25575Y-24858D02*
X25580Y-24853D01*
X25098Y-24940D02*
X25575Y-24858D01*
X26688Y-21964D02*
X27590Y-21062D01*
X26531Y-21964D02*
X26688Y-21964D01*
X27590Y-21062D02*
X27803Y-21062D01*
G54D31*
X24783Y-18204D02*
X24783Y-18720D01*
X24783Y-18720D02*
X25251Y-19188D01*
X28377Y-20488D02*
X28696Y-20488D01*
X27803Y-21062D02*
X28377Y-20488D01*
X28981Y-20203D02*
X28981Y-18204D01*
X28696Y-20488D02*
X28981Y-20203D01*
G54D30*
X27358Y-19523D02*
X27495Y-19523D01*
X28775Y-18244D02*
X28824Y-18244D01*
X23854Y-19563D02*
X24228Y-19188D01*
X24228Y-19188D02*
X25251Y-19188D01*
X24562Y-21767D02*
X23843Y-21767D01*
X23843Y-21767D02*
X23834Y-21759D01*
G54D32*
X24562Y-22161D02*
X25448Y-22161D01*
X25448Y-22161D02*
X25547Y-22062D01*
G54D30*
X25547Y-22062D02*
X25448Y-22161D01*
X24562Y-21767D02*
X25251Y-21767D01*
X25251Y-21767D02*
X25547Y-22062D01*
X26531Y-21964D02*
X25645Y-21964D01*
X25645Y-21964D02*
X25547Y-22062D01*
X27803Y-21263D02*
X27803Y-21062D01*
X24838Y-23534D02*
X24838Y-23066D01*
X24838Y-23066D02*
X24858Y-23047D01*
X24858Y-23047D02*
X24853Y-23051D01*
X24838Y-24134D02*
X24857Y-24153D01*
X24857Y-24153D02*
X25580Y-24153D01*
X25448Y-23047D02*
X25448Y-23460D01*
X23460Y-18898D02*
X23854Y-18504D01*
X23460Y-23322D02*
X23460Y-18898D01*
X23893Y-23755D02*
X23460Y-23322D01*
X25448Y-23460D02*
X25429Y-23480D01*
G54D31*
X26767Y-26944D02*
X26767Y-28874D01*
X24535Y-25027D02*
X26452Y-26944D01*
X26452Y-26944D02*
X26767Y-26944D01*
X24208Y-25027D02*
X24535Y-25027D01*
X27791Y-27850D02*
X27791Y-25914D01*
G54D30*
X27791Y-25914D02*
X26380Y-24503D01*
X27358Y-20113D02*
X27456Y-20113D01*
X28051Y-19518D02*
X28303Y-19518D01*
X27456Y-20113D02*
X28051Y-19518D01*
X23854Y-20153D02*
X23953Y-20153D01*
X24548Y-19558D02*
X24799Y-19558D01*
X23953Y-20153D02*
X24548Y-19558D01*
X25625Y-20153D02*
X25724Y-20153D01*
X26319Y-19558D02*
X26570Y-19558D01*
X25724Y-20153D02*
X26319Y-19558D01*
G54D10*
G36*
X24702Y-20924D02*
X24674Y-20967D01*
X24659Y-21043D01*
X24659Y-21174D01*
X24527Y-21174D01*
X24451Y-21189D01*
X24386Y-21233D01*
X24343Y-21297D01*
X24328Y-21374D01*
X24343Y-21450D01*
X24358Y-21472D01*
X24343Y-21494D01*
X24328Y-21570D01*
X24343Y-21647D01*
X24386Y-21711D01*
X24434Y-21743D01*
X24434Y-21764D01*
X24346Y-21764D01*
X24269Y-21779D01*
X24248Y-21794D01*
X24205Y-21823D01*
X24042Y-21986D01*
X24042Y-21893D01*
X24042Y-21624D01*
X24034Y-21605D01*
X24020Y-21591D01*
X24002Y-21584D01*
X23982Y-21584D01*
X23897Y-21584D01*
X23884Y-21596D01*
X23884Y-21709D01*
X24029Y-21709D01*
X24042Y-21696D01*
X24042Y-21624D01*
X24042Y-21893D01*
X24042Y-21821D01*
X24029Y-21809D01*
X23884Y-21809D01*
X23884Y-21921D01*
X23897Y-21934D01*
X23982Y-21934D01*
X24002Y-21934D01*
X24020Y-21926D01*
X24034Y-21912D01*
X24042Y-21893D01*
X24042Y-21986D01*
X23944Y-22084D01*
X23660Y-22084D01*
X23660Y-21931D01*
X23667Y-21934D01*
X23687Y-21934D01*
X23772Y-21934D01*
X23784Y-21921D01*
X23784Y-21809D01*
X23776Y-21809D01*
X23776Y-21709D01*
X23784Y-21709D01*
X23784Y-21596D01*
X23772Y-21584D01*
X23687Y-21584D01*
X23667Y-21584D01*
X23660Y-21586D01*
X23660Y-20792D01*
X23697Y-20881D01*
X23775Y-20959D01*
X23877Y-21002D01*
X23988Y-21002D01*
X24090Y-20960D01*
X24126Y-20924D01*
X24702Y-20924D01*
X24702Y-20924D01*
G37*
G54D30*
X24702Y-20924D02*
X24674Y-20967D01*
X24659Y-21043D01*
X24659Y-21174D01*
X24527Y-21174D01*
X24451Y-21189D01*
X24386Y-21233D01*
X24343Y-21297D01*
X24328Y-21374D01*
X24343Y-21450D01*
X24358Y-21472D01*
X24343Y-21494D01*
X24328Y-21570D01*
X24343Y-21647D01*
X24386Y-21711D01*
X24434Y-21743D01*
X24434Y-21764D01*
X24346Y-21764D01*
X24269Y-21779D01*
X24248Y-21794D01*
X24205Y-21823D01*
X24042Y-21986D01*
X24042Y-21893D01*
X24042Y-21624D01*
X24034Y-21605D01*
X24020Y-21591D01*
X24002Y-21584D01*
X23982Y-21584D01*
X23897Y-21584D01*
X23884Y-21596D01*
X23884Y-21709D01*
X24029Y-21709D01*
X24042Y-21696D01*
X24042Y-21624D01*
X24042Y-21893D01*
X24042Y-21821D01*
X24029Y-21809D01*
X23884Y-21809D01*
X23884Y-21921D01*
X23897Y-21934D01*
X23982Y-21934D01*
X24002Y-21934D01*
X24020Y-21926D01*
X24034Y-21912D01*
X24042Y-21893D01*
X24042Y-21986D01*
X23944Y-22084D01*
X23660Y-22084D01*
X23660Y-21931D01*
X23667Y-21934D01*
X23687Y-21934D01*
X23772Y-21934D01*
X23784Y-21921D01*
X23784Y-21809D01*
X23776Y-21809D01*
X23776Y-21709D01*
X23784Y-21709D01*
X23784Y-21596D01*
X23772Y-21584D01*
X23687Y-21584D01*
X23667Y-21584D01*
X23660Y-21586D01*
X23660Y-20792D01*
X23697Y-20881D01*
X23775Y-20959D01*
X23877Y-21002D01*
X23988Y-21002D01*
X24090Y-20960D01*
X24126Y-20924D01*
X24702Y-20924D01*
G54D10*
G36*
X25605Y-22112D02*
X25597Y-22112D01*
X25597Y-22120D01*
X25497Y-22120D01*
X25497Y-22112D01*
X25489Y-22112D01*
X25489Y-22012D01*
X25497Y-22012D01*
X25497Y-22005D01*
X25597Y-22005D01*
X25597Y-22012D01*
X25605Y-22012D01*
X25605Y-22112D01*
X25605Y-22112D01*
G37*
G54D30*
X25605Y-22112D02*
X25597Y-22112D01*
X25597Y-22120D01*
X25497Y-22120D01*
X25497Y-22112D01*
X25489Y-22112D01*
X25489Y-22012D01*
X25497Y-22012D01*
X25497Y-22005D01*
X25597Y-22005D01*
X25597Y-22012D01*
X25605Y-22012D01*
X25605Y-22112D01*
G54D10*
G36*
X29393Y-21370D02*
X29256Y-21233D01*
X29287Y-21159D01*
X29287Y-20967D01*
X29281Y-20952D01*
X29281Y-18694D01*
X29281Y-18267D01*
X29269Y-18254D01*
X29031Y-18254D01*
X29031Y-18742D01*
X29044Y-18754D01*
X29241Y-18754D01*
X29260Y-18747D01*
X29274Y-18733D01*
X29281Y-18714D01*
X29281Y-18694D01*
X29281Y-20952D01*
X29214Y-20788D01*
X29077Y-20652D01*
X28931Y-20591D01*
X28931Y-18742D01*
X28931Y-18254D01*
X28694Y-18254D01*
X28681Y-18267D01*
X28681Y-18694D01*
X28681Y-18714D01*
X28689Y-18733D01*
X28703Y-18747D01*
X28721Y-18754D01*
X28919Y-18754D01*
X28931Y-18742D01*
X28931Y-20591D01*
X28899Y-20578D01*
X28707Y-20578D01*
X28529Y-20652D01*
X28392Y-20788D01*
X28318Y-20966D01*
X28318Y-21158D01*
X28392Y-21337D01*
X28528Y-21473D01*
X28706Y-21547D01*
X28899Y-21547D01*
X28973Y-21516D01*
X29146Y-21689D01*
X29146Y-21721D01*
X29077Y-21652D01*
X28899Y-21578D01*
X28707Y-21578D01*
X28632Y-21609D01*
X28432Y-21409D01*
X28367Y-21366D01*
X28291Y-21351D01*
X28192Y-21351D01*
X28192Y-21105D01*
X28179Y-20952D01*
X28147Y-20874D01*
X28104Y-20832D01*
X27873Y-21062D01*
X28104Y-21293D01*
X28147Y-21251D01*
X28192Y-21105D01*
X28192Y-21351D01*
X28020Y-21351D01*
X27803Y-21133D01*
X27732Y-21204D01*
X27732Y-21062D01*
X27501Y-20832D01*
X27459Y-20874D01*
X27413Y-21020D01*
X27426Y-21173D01*
X27459Y-21251D01*
X27501Y-21293D01*
X27732Y-21062D01*
X27732Y-21204D01*
X27585Y-21351D01*
X27535Y-21351D01*
X27458Y-21366D01*
X27437Y-21380D01*
X27394Y-21409D01*
X27138Y-21665D01*
X27094Y-21730D01*
X27079Y-21807D01*
X27079Y-21893D01*
X26990Y-21856D01*
X26860Y-21856D01*
X26741Y-21905D01*
X26658Y-21987D01*
X26642Y-21977D01*
X26578Y-21964D01*
X26642Y-21951D01*
X26707Y-21908D01*
X26750Y-21843D01*
X26765Y-21767D01*
X26750Y-21691D01*
X26735Y-21669D01*
X26750Y-21647D01*
X26765Y-21570D01*
X26750Y-21494D01*
X26735Y-21472D01*
X26750Y-21450D01*
X26765Y-21374D01*
X26750Y-21297D01*
X26707Y-21233D01*
X26642Y-21189D01*
X26566Y-21174D01*
X26435Y-21174D01*
X26435Y-21162D01*
X26909Y-20688D01*
X27689Y-20688D01*
X27615Y-20719D01*
X27572Y-20761D01*
X27803Y-20992D01*
X28033Y-20761D01*
X27991Y-20719D01*
X27892Y-20688D01*
X27933Y-20688D01*
X28010Y-20672D01*
X28075Y-20629D01*
X28310Y-20393D01*
X28557Y-20393D01*
X28613Y-20371D01*
X28655Y-20328D01*
X28678Y-20273D01*
X28678Y-20214D01*
X28678Y-19964D01*
X28655Y-19909D01*
X28613Y-19866D01*
X28558Y-19843D01*
X28498Y-19843D01*
X28048Y-19843D01*
X27993Y-19866D01*
X27951Y-19908D01*
X27928Y-19963D01*
X27928Y-20023D01*
X27928Y-20211D01*
X27851Y-20288D01*
X27665Y-20288D01*
X27665Y-20241D01*
X27665Y-20188D01*
X28059Y-19793D01*
X28107Y-19793D01*
X28557Y-19793D01*
X28613Y-19771D01*
X28655Y-19728D01*
X28678Y-19673D01*
X28678Y-19614D01*
X28678Y-19364D01*
X28655Y-19309D01*
X28613Y-19266D01*
X28558Y-19243D01*
X28498Y-19243D01*
X28048Y-19243D01*
X27993Y-19266D01*
X27951Y-19308D01*
X27928Y-19363D01*
X27928Y-19365D01*
X27910Y-19377D01*
X27565Y-19722D01*
X27565Y-19690D01*
X27565Y-19356D01*
X27557Y-19338D01*
X27543Y-19324D01*
X27525Y-19316D01*
X27505Y-19316D01*
X27420Y-19316D01*
X27408Y-19329D01*
X27408Y-19473D01*
X27552Y-19473D01*
X27565Y-19461D01*
X27565Y-19356D01*
X27565Y-19690D01*
X27565Y-19586D01*
X27552Y-19573D01*
X27408Y-19573D01*
X27408Y-19718D01*
X27420Y-19730D01*
X27505Y-19730D01*
X27525Y-19730D01*
X27543Y-19723D01*
X27557Y-19709D01*
X27565Y-19690D01*
X27565Y-19722D01*
X27481Y-19806D01*
X27308Y-19806D01*
X27308Y-19718D01*
X27308Y-19573D01*
X27308Y-19473D01*
X27308Y-19329D01*
X27295Y-19316D01*
X27211Y-19316D01*
X27191Y-19316D01*
X27172Y-19324D01*
X27158Y-19338D01*
X27151Y-19356D01*
X27151Y-19461D01*
X27163Y-19473D01*
X27308Y-19473D01*
X27308Y-19573D01*
X27163Y-19573D01*
X27151Y-19586D01*
X27151Y-19690D01*
X27158Y-19709D01*
X27172Y-19723D01*
X27191Y-19730D01*
X27211Y-19730D01*
X27295Y-19730D01*
X27308Y-19718D01*
X27308Y-19806D01*
X27171Y-19806D01*
X27116Y-19829D01*
X27074Y-19871D01*
X27051Y-19926D01*
X27051Y-19986D01*
X27051Y-20288D01*
X26945Y-20288D01*
X26945Y-20253D01*
X26945Y-20003D01*
X26923Y-19948D01*
X26880Y-19906D01*
X26825Y-19883D01*
X26766Y-19883D01*
X26316Y-19883D01*
X26261Y-19906D01*
X26218Y-19948D01*
X26195Y-20003D01*
X26195Y-20062D01*
X26195Y-20312D01*
X26218Y-20368D01*
X26234Y-20384D01*
X26034Y-20584D01*
X26027Y-20549D01*
X26027Y-20549D01*
X26012Y-20527D01*
X25983Y-20484D01*
X25983Y-20484D01*
X25902Y-20403D01*
X25910Y-20395D01*
X25932Y-20340D01*
X25933Y-20280D01*
X25933Y-20227D01*
X26327Y-19833D01*
X26375Y-19833D01*
X26825Y-19833D01*
X26880Y-19810D01*
X26922Y-19768D01*
X26945Y-19713D01*
X26945Y-19653D01*
X26945Y-19403D01*
X26923Y-19348D01*
X26880Y-19306D01*
X26825Y-19283D01*
X26766Y-19283D01*
X26316Y-19283D01*
X26261Y-19306D01*
X26218Y-19348D01*
X26195Y-19403D01*
X26195Y-19405D01*
X26178Y-19416D01*
X25832Y-19762D01*
X25832Y-19730D01*
X25832Y-19396D01*
X25825Y-19377D01*
X25811Y-19363D01*
X25792Y-19356D01*
X25773Y-19356D01*
X25688Y-19356D01*
X25675Y-19368D01*
X25675Y-19513D01*
X25820Y-19513D01*
X25832Y-19500D01*
X25832Y-19396D01*
X25832Y-19730D01*
X25832Y-19625D01*
X25820Y-19613D01*
X25675Y-19613D01*
X25675Y-19757D01*
X25688Y-19770D01*
X25773Y-19770D01*
X25792Y-19770D01*
X25811Y-19762D01*
X25825Y-19748D01*
X25832Y-19730D01*
X25832Y-19762D01*
X25748Y-19846D01*
X25575Y-19846D01*
X25575Y-19757D01*
X25575Y-19613D01*
X25575Y-19513D01*
X25575Y-19368D01*
X25563Y-19356D01*
X25478Y-19356D01*
X25458Y-19356D01*
X25440Y-19363D01*
X25426Y-19377D01*
X25418Y-19396D01*
X25418Y-19500D01*
X25431Y-19513D01*
X25575Y-19513D01*
X25575Y-19613D01*
X25431Y-19613D01*
X25418Y-19625D01*
X25418Y-19730D01*
X25426Y-19748D01*
X25440Y-19762D01*
X25458Y-19770D01*
X25478Y-19770D01*
X25563Y-19770D01*
X25575Y-19757D01*
X25575Y-19846D01*
X25439Y-19846D01*
X25384Y-19869D01*
X25341Y-19911D01*
X25319Y-19966D01*
X25318Y-20025D01*
X25318Y-20288D01*
X25174Y-20288D01*
X25174Y-20253D01*
X25174Y-20003D01*
X25151Y-19948D01*
X25109Y-19906D01*
X25054Y-19883D01*
X24994Y-19883D01*
X24544Y-19883D01*
X24489Y-19906D01*
X24447Y-19948D01*
X24424Y-20003D01*
X24424Y-20062D01*
X24424Y-20312D01*
X24446Y-20368D01*
X24489Y-20410D01*
X24544Y-20433D01*
X24603Y-20433D01*
X24611Y-20433D01*
X24614Y-20446D01*
X24657Y-20511D01*
X24670Y-20524D01*
X24126Y-20524D01*
X24090Y-20488D01*
X24021Y-20460D01*
X24041Y-20460D01*
X24096Y-20437D01*
X24138Y-20395D01*
X24161Y-20340D01*
X24161Y-20280D01*
X24161Y-20227D01*
X24555Y-19833D01*
X24603Y-19833D01*
X25053Y-19833D01*
X25109Y-19810D01*
X25151Y-19768D01*
X25174Y-19713D01*
X25174Y-19653D01*
X25174Y-19403D01*
X25151Y-19348D01*
X25109Y-19306D01*
X25108Y-19305D01*
X25108Y-18469D01*
X25108Y-18267D01*
X25095Y-18254D01*
X24833Y-18254D01*
X24833Y-18517D01*
X24845Y-18529D01*
X25068Y-18529D01*
X25086Y-18522D01*
X25100Y-18508D01*
X25108Y-18489D01*
X25108Y-18469D01*
X25108Y-19305D01*
X25054Y-19283D01*
X24994Y-19283D01*
X24733Y-19283D01*
X24733Y-18517D01*
X24733Y-18254D01*
X24470Y-18254D01*
X24458Y-18267D01*
X24458Y-18469D01*
X24458Y-18489D01*
X24466Y-18508D01*
X24480Y-18522D01*
X24498Y-18529D01*
X24720Y-18529D01*
X24733Y-18517D01*
X24733Y-19283D01*
X24544Y-19283D01*
X24489Y-19306D01*
X24447Y-19348D01*
X24424Y-19403D01*
X24424Y-19405D01*
X24406Y-19416D01*
X24061Y-19762D01*
X24061Y-19730D01*
X24061Y-19396D01*
X24053Y-19377D01*
X24039Y-19363D01*
X24021Y-19356D01*
X24001Y-19356D01*
X23916Y-19356D01*
X23904Y-19368D01*
X23904Y-19513D01*
X24048Y-19513D01*
X24061Y-19500D01*
X24061Y-19396D01*
X24061Y-19730D01*
X24061Y-19625D01*
X24048Y-19613D01*
X23904Y-19613D01*
X23904Y-19757D01*
X23916Y-19770D01*
X24001Y-19770D01*
X24021Y-19770D01*
X24039Y-19762D01*
X24053Y-19748D01*
X24061Y-19730D01*
X24061Y-19762D01*
X23977Y-19846D01*
X23667Y-19846D01*
X23660Y-19849D01*
X23660Y-19754D01*
X23668Y-19762D01*
X23687Y-19770D01*
X23707Y-19770D01*
X23791Y-19770D01*
X23804Y-19757D01*
X23804Y-19613D01*
X23796Y-19613D01*
X23796Y-19513D01*
X23804Y-19513D01*
X23804Y-19368D01*
X23791Y-19356D01*
X23707Y-19356D01*
X23687Y-19356D01*
X23668Y-19363D01*
X23660Y-19372D01*
X23660Y-18981D01*
X23862Y-18779D01*
X24109Y-18779D01*
X24164Y-18756D01*
X24206Y-18714D01*
X24229Y-18659D01*
X24229Y-18600D01*
X24229Y-18350D01*
X24206Y-18294D01*
X24164Y-18252D01*
X24109Y-18229D01*
X24049Y-18229D01*
X23599Y-18229D01*
X23544Y-18252D01*
X23502Y-18294D01*
X23479Y-18349D01*
X23479Y-18409D01*
X23479Y-18596D01*
X23433Y-18642D01*
X23433Y-17665D01*
X23531Y-17665D01*
X23502Y-17694D01*
X23479Y-17749D01*
X23479Y-17809D01*
X23479Y-18059D01*
X23502Y-18114D01*
X23544Y-18156D01*
X23599Y-18179D01*
X23659Y-18179D01*
X24109Y-18179D01*
X24164Y-18156D01*
X24206Y-18114D01*
X24229Y-18059D01*
X24229Y-18000D01*
X24229Y-17932D01*
X24458Y-17932D01*
X24458Y-17939D01*
X24458Y-18142D01*
X24470Y-18154D01*
X24733Y-18154D01*
X24733Y-18146D01*
X24833Y-18146D01*
X24833Y-18154D01*
X25095Y-18154D01*
X25108Y-18142D01*
X25108Y-17939D01*
X25108Y-17932D01*
X25454Y-17932D01*
X25423Y-17963D01*
X25358Y-18119D01*
X25358Y-18288D01*
X25422Y-18445D01*
X25542Y-18564D01*
X25698Y-18629D01*
X25857Y-18629D01*
X26277Y-19049D01*
X26357Y-19103D01*
X26452Y-19122D01*
X27112Y-19122D01*
X27112Y-19122D01*
X27207Y-19103D01*
X27288Y-19049D01*
X27488Y-18849D01*
X27501Y-18854D01*
X27561Y-18854D01*
X28061Y-18854D01*
X28116Y-18831D01*
X28158Y-18789D01*
X28181Y-18734D01*
X28181Y-18675D01*
X28181Y-17675D01*
X28178Y-17665D01*
X28700Y-17665D01*
X28689Y-17676D01*
X28681Y-17694D01*
X28681Y-17714D01*
X28681Y-18142D01*
X28694Y-18154D01*
X28931Y-18154D01*
X28931Y-18146D01*
X29031Y-18146D01*
X29031Y-18154D01*
X29269Y-18154D01*
X29281Y-18142D01*
X29281Y-17714D01*
X29281Y-17694D01*
X29274Y-17676D01*
X29263Y-17665D01*
X29393Y-17665D01*
X29393Y-21370D01*
X29393Y-21370D01*
G37*
G54D30*
X29393Y-21370D02*
X29256Y-21233D01*
X29287Y-21159D01*
X29287Y-20967D01*
X29281Y-20952D01*
X29281Y-18694D01*
X29281Y-18267D01*
X29269Y-18254D01*
X29031Y-18254D01*
X29031Y-18742D01*
X29044Y-18754D01*
X29241Y-18754D01*
X29260Y-18747D01*
X29274Y-18733D01*
X29281Y-18714D01*
X29281Y-18694D01*
X29281Y-20952D01*
X29214Y-20788D01*
X29077Y-20652D01*
X28931Y-20591D01*
X28931Y-18742D01*
X28931Y-18254D01*
X28694Y-18254D01*
X28681Y-18267D01*
X28681Y-18694D01*
X28681Y-18714D01*
X28689Y-18733D01*
X28703Y-18747D01*
X28721Y-18754D01*
X28919Y-18754D01*
X28931Y-18742D01*
X28931Y-20591D01*
X28899Y-20578D01*
X28707Y-20578D01*
X28529Y-20652D01*
X28392Y-20788D01*
X28318Y-20966D01*
X28318Y-21158D01*
X28392Y-21337D01*
X28528Y-21473D01*
X28706Y-21547D01*
X28899Y-21547D01*
X28973Y-21516D01*
X29146Y-21689D01*
X29146Y-21721D01*
X29077Y-21652D01*
X28899Y-21578D01*
X28707Y-21578D01*
X28632Y-21609D01*
X28432Y-21409D01*
X28367Y-21366D01*
X28291Y-21351D01*
X28192Y-21351D01*
X28192Y-21105D01*
X28179Y-20952D01*
X28147Y-20874D01*
X28104Y-20832D01*
X27873Y-21062D01*
X28104Y-21293D01*
X28147Y-21251D01*
X28192Y-21105D01*
X28192Y-21351D01*
X28020Y-21351D01*
X27803Y-21133D01*
X27732Y-21204D01*
X27732Y-21062D01*
X27501Y-20832D01*
X27459Y-20874D01*
X27413Y-21020D01*
X27426Y-21173D01*
X27459Y-21251D01*
X27501Y-21293D01*
X27732Y-21062D01*
X27732Y-21204D01*
X27585Y-21351D01*
X27535Y-21351D01*
X27458Y-21366D01*
X27437Y-21380D01*
X27394Y-21409D01*
X27138Y-21665D01*
X27094Y-21730D01*
X27079Y-21807D01*
X27079Y-21893D01*
X26990Y-21856D01*
X26860Y-21856D01*
X26741Y-21905D01*
X26658Y-21987D01*
X26642Y-21977D01*
X26578Y-21964D01*
X26642Y-21951D01*
X26707Y-21908D01*
X26750Y-21843D01*
X26765Y-21767D01*
X26750Y-21691D01*
X26735Y-21669D01*
X26750Y-21647D01*
X26765Y-21570D01*
X26750Y-21494D01*
X26735Y-21472D01*
X26750Y-21450D01*
X26765Y-21374D01*
X26750Y-21297D01*
X26707Y-21233D01*
X26642Y-21189D01*
X26566Y-21174D01*
X26435Y-21174D01*
X26435Y-21162D01*
X26909Y-20688D01*
X27689Y-20688D01*
X27615Y-20719D01*
X27572Y-20761D01*
X27803Y-20992D01*
X28033Y-20761D01*
X27991Y-20719D01*
X27892Y-20688D01*
X27933Y-20688D01*
X28010Y-20672D01*
X28075Y-20629D01*
X28310Y-20393D01*
X28557Y-20393D01*
X28613Y-20371D01*
X28655Y-20328D01*
X28678Y-20273D01*
X28678Y-20214D01*
X28678Y-19964D01*
X28655Y-19909D01*
X28613Y-19866D01*
X28558Y-19843D01*
X28498Y-19843D01*
X28048Y-19843D01*
X27993Y-19866D01*
X27951Y-19908D01*
X27928Y-19963D01*
X27928Y-20023D01*
X27928Y-20211D01*
X27851Y-20288D01*
X27665Y-20288D01*
X27665Y-20241D01*
X27665Y-20188D01*
X28059Y-19793D01*
X28107Y-19793D01*
X28557Y-19793D01*
X28613Y-19771D01*
X28655Y-19728D01*
X28678Y-19673D01*
X28678Y-19614D01*
X28678Y-19364D01*
X28655Y-19309D01*
X28613Y-19266D01*
X28558Y-19243D01*
X28498Y-19243D01*
X28048Y-19243D01*
X27993Y-19266D01*
X27951Y-19308D01*
X27928Y-19363D01*
X27928Y-19365D01*
X27910Y-19377D01*
X27565Y-19722D01*
X27565Y-19690D01*
X27565Y-19356D01*
X27557Y-19338D01*
X27543Y-19324D01*
X27525Y-19316D01*
X27505Y-19316D01*
X27420Y-19316D01*
X27408Y-19329D01*
X27408Y-19473D01*
X27552Y-19473D01*
X27565Y-19461D01*
X27565Y-19356D01*
X27565Y-19690D01*
X27565Y-19586D01*
X27552Y-19573D01*
X27408Y-19573D01*
X27408Y-19718D01*
X27420Y-19730D01*
X27505Y-19730D01*
X27525Y-19730D01*
X27543Y-19723D01*
X27557Y-19709D01*
X27565Y-19690D01*
X27565Y-19722D01*
X27481Y-19806D01*
X27308Y-19806D01*
X27308Y-19718D01*
X27308Y-19573D01*
X27308Y-19473D01*
X27308Y-19329D01*
X27295Y-19316D01*
X27211Y-19316D01*
X27191Y-19316D01*
X27172Y-19324D01*
X27158Y-19338D01*
X27151Y-19356D01*
X27151Y-19461D01*
X27163Y-19473D01*
X27308Y-19473D01*
X27308Y-19573D01*
X27163Y-19573D01*
X27151Y-19586D01*
X27151Y-19690D01*
X27158Y-19709D01*
X27172Y-19723D01*
X27191Y-19730D01*
X27211Y-19730D01*
X27295Y-19730D01*
X27308Y-19718D01*
X27308Y-19806D01*
X27171Y-19806D01*
X27116Y-19829D01*
X27074Y-19871D01*
X27051Y-19926D01*
X27051Y-19986D01*
X27051Y-20288D01*
X26945Y-20288D01*
X26945Y-20253D01*
X26945Y-20003D01*
X26923Y-19948D01*
X26880Y-19906D01*
X26825Y-19883D01*
X26766Y-19883D01*
X26316Y-19883D01*
X26261Y-19906D01*
X26218Y-19948D01*
X26195Y-20003D01*
X26195Y-20062D01*
X26195Y-20312D01*
X26218Y-20368D01*
X26234Y-20384D01*
X26034Y-20584D01*
X26027Y-20549D01*
X26027Y-20549D01*
X26012Y-20527D01*
X25983Y-20484D01*
X25983Y-20484D01*
X25902Y-20403D01*
X25910Y-20395D01*
X25932Y-20340D01*
X25933Y-20280D01*
X25933Y-20227D01*
X26327Y-19833D01*
X26375Y-19833D01*
X26825Y-19833D01*
X26880Y-19810D01*
X26922Y-19768D01*
X26945Y-19713D01*
X26945Y-19653D01*
X26945Y-19403D01*
X26923Y-19348D01*
X26880Y-19306D01*
X26825Y-19283D01*
X26766Y-19283D01*
X26316Y-19283D01*
X26261Y-19306D01*
X26218Y-19348D01*
X26195Y-19403D01*
X26195Y-19405D01*
X26178Y-19416D01*
X25832Y-19762D01*
X25832Y-19730D01*
X25832Y-19396D01*
X25825Y-19377D01*
X25811Y-19363D01*
X25792Y-19356D01*
X25773Y-19356D01*
X25688Y-19356D01*
X25675Y-19368D01*
X25675Y-19513D01*
X25820Y-19513D01*
X25832Y-19500D01*
X25832Y-19396D01*
X25832Y-19730D01*
X25832Y-19625D01*
X25820Y-19613D01*
X25675Y-19613D01*
X25675Y-19757D01*
X25688Y-19770D01*
X25773Y-19770D01*
X25792Y-19770D01*
X25811Y-19762D01*
X25825Y-19748D01*
X25832Y-19730D01*
X25832Y-19762D01*
X25748Y-19846D01*
X25575Y-19846D01*
X25575Y-19757D01*
X25575Y-19613D01*
X25575Y-19513D01*
X25575Y-19368D01*
X25563Y-19356D01*
X25478Y-19356D01*
X25458Y-19356D01*
X25440Y-19363D01*
X25426Y-19377D01*
X25418Y-19396D01*
X25418Y-19500D01*
X25431Y-19513D01*
X25575Y-19513D01*
X25575Y-19613D01*
X25431Y-19613D01*
X25418Y-19625D01*
X25418Y-19730D01*
X25426Y-19748D01*
X25440Y-19762D01*
X25458Y-19770D01*
X25478Y-19770D01*
X25563Y-19770D01*
X25575Y-19757D01*
X25575Y-19846D01*
X25439Y-19846D01*
X25384Y-19869D01*
X25341Y-19911D01*
X25319Y-19966D01*
X25318Y-20025D01*
X25318Y-20288D01*
X25174Y-20288D01*
X25174Y-20253D01*
X25174Y-20003D01*
X25151Y-19948D01*
X25109Y-19906D01*
X25054Y-19883D01*
X24994Y-19883D01*
X24544Y-19883D01*
X24489Y-19906D01*
X24447Y-19948D01*
X24424Y-20003D01*
X24424Y-20062D01*
X24424Y-20312D01*
X24446Y-20368D01*
X24489Y-20410D01*
X24544Y-20433D01*
X24603Y-20433D01*
X24611Y-20433D01*
X24614Y-20446D01*
X24657Y-20511D01*
X24670Y-20524D01*
X24126Y-20524D01*
X24090Y-20488D01*
X24021Y-20460D01*
X24041Y-20460D01*
X24096Y-20437D01*
X24138Y-20395D01*
X24161Y-20340D01*
X24161Y-20280D01*
X24161Y-20227D01*
X24555Y-19833D01*
X24603Y-19833D01*
X25053Y-19833D01*
X25109Y-19810D01*
X25151Y-19768D01*
X25174Y-19713D01*
X25174Y-19653D01*
X25174Y-19403D01*
X25151Y-19348D01*
X25109Y-19306D01*
X25108Y-19305D01*
X25108Y-18469D01*
X25108Y-18267D01*
X25095Y-18254D01*
X24833Y-18254D01*
X24833Y-18517D01*
X24845Y-18529D01*
X25068Y-18529D01*
X25086Y-18522D01*
X25100Y-18508D01*
X25108Y-18489D01*
X25108Y-18469D01*
X25108Y-19305D01*
X25054Y-19283D01*
X24994Y-19283D01*
X24733Y-19283D01*
X24733Y-18517D01*
X24733Y-18254D01*
X24470Y-18254D01*
X24458Y-18267D01*
X24458Y-18469D01*
X24458Y-18489D01*
X24466Y-18508D01*
X24480Y-18522D01*
X24498Y-18529D01*
X24720Y-18529D01*
X24733Y-18517D01*
X24733Y-19283D01*
X24544Y-19283D01*
X24489Y-19306D01*
X24447Y-19348D01*
X24424Y-19403D01*
X24424Y-19405D01*
X24406Y-19416D01*
X24061Y-19762D01*
X24061Y-19730D01*
X24061Y-19396D01*
X24053Y-19377D01*
X24039Y-19363D01*
X24021Y-19356D01*
X24001Y-19356D01*
X23916Y-19356D01*
X23904Y-19368D01*
X23904Y-19513D01*
X24048Y-19513D01*
X24061Y-19500D01*
X24061Y-19396D01*
X24061Y-19730D01*
X24061Y-19625D01*
X24048Y-19613D01*
X23904Y-19613D01*
X23904Y-19757D01*
X23916Y-19770D01*
X24001Y-19770D01*
X24021Y-19770D01*
X24039Y-19762D01*
X24053Y-19748D01*
X24061Y-19730D01*
X24061Y-19762D01*
X23977Y-19846D01*
X23667Y-19846D01*
X23660Y-19849D01*
X23660Y-19754D01*
X23668Y-19762D01*
X23687Y-19770D01*
X23707Y-19770D01*
X23791Y-19770D01*
X23804Y-19757D01*
X23804Y-19613D01*
X23796Y-19613D01*
X23796Y-19513D01*
X23804Y-19513D01*
X23804Y-19368D01*
X23791Y-19356D01*
X23707Y-19356D01*
X23687Y-19356D01*
X23668Y-19363D01*
X23660Y-19372D01*
X23660Y-18981D01*
X23862Y-18779D01*
X24109Y-18779D01*
X24164Y-18756D01*
X24206Y-18714D01*
X24229Y-18659D01*
X24229Y-18600D01*
X24229Y-18350D01*
X24206Y-18294D01*
X24164Y-18252D01*
X24109Y-18229D01*
X24049Y-18229D01*
X23599Y-18229D01*
X23544Y-18252D01*
X23502Y-18294D01*
X23479Y-18349D01*
X23479Y-18409D01*
X23479Y-18596D01*
X23433Y-18642D01*
X23433Y-17665D01*
X23531Y-17665D01*
X23502Y-17694D01*
X23479Y-17749D01*
X23479Y-17809D01*
X23479Y-18059D01*
X23502Y-18114D01*
X23544Y-18156D01*
X23599Y-18179D01*
X23659Y-18179D01*
X24109Y-18179D01*
X24164Y-18156D01*
X24206Y-18114D01*
X24229Y-18059D01*
X24229Y-18000D01*
X24229Y-17932D01*
X24458Y-17932D01*
X24458Y-17939D01*
X24458Y-18142D01*
X24470Y-18154D01*
X24733Y-18154D01*
X24733Y-18146D01*
X24833Y-18146D01*
X24833Y-18154D01*
X25095Y-18154D01*
X25108Y-18142D01*
X25108Y-17939D01*
X25108Y-17932D01*
X25454Y-17932D01*
X25423Y-17963D01*
X25358Y-18119D01*
X25358Y-18288D01*
X25422Y-18445D01*
X25542Y-18564D01*
X25698Y-18629D01*
X25857Y-18629D01*
X26277Y-19049D01*
X26357Y-19103D01*
X26452Y-19122D01*
X27112Y-19122D01*
X27112Y-19122D01*
X27207Y-19103D01*
X27288Y-19049D01*
X27488Y-18849D01*
X27501Y-18854D01*
X27561Y-18854D01*
X28061Y-18854D01*
X28116Y-18831D01*
X28158Y-18789D01*
X28181Y-18734D01*
X28181Y-18675D01*
X28181Y-17675D01*
X28178Y-17665D01*
X28700Y-17665D01*
X28689Y-17676D01*
X28681Y-17694D01*
X28681Y-17714D01*
X28681Y-18142D01*
X28694Y-18154D01*
X28931Y-18154D01*
X28931Y-18146D01*
X29031Y-18146D01*
X29031Y-18154D01*
X29269Y-18154D01*
X29281Y-18142D01*
X29281Y-17714D01*
X29281Y-17694D01*
X29274Y-17676D01*
X29263Y-17665D01*
X29393Y-17665D01*
X29393Y-21370D01*
G54D10*
G36*
X29393Y-30357D02*
X23433Y-30357D01*
X23433Y-23578D01*
X23615Y-23760D01*
X23615Y-23810D01*
X23657Y-23913D01*
X23736Y-23991D01*
X23838Y-24033D01*
X23948Y-24033D01*
X24050Y-23991D01*
X24129Y-23913D01*
X24171Y-23811D01*
X24171Y-23804D01*
X24342Y-23976D01*
X24342Y-23976D01*
X24407Y-24019D01*
X24407Y-24019D01*
X24420Y-24021D01*
X24463Y-24030D01*
X24463Y-24039D01*
X24463Y-24289D01*
X24486Y-24344D01*
X24528Y-24386D01*
X24583Y-24409D01*
X24643Y-24409D01*
X25093Y-24409D01*
X25148Y-24386D01*
X25181Y-24353D01*
X25250Y-24353D01*
X25250Y-24363D01*
X25273Y-24418D01*
X25315Y-24461D01*
X25370Y-24483D01*
X25430Y-24483D01*
X25790Y-24483D01*
X25845Y-24461D01*
X25887Y-24419D01*
X25910Y-24363D01*
X25910Y-24304D01*
X25910Y-23995D01*
X25936Y-23995D01*
X26094Y-24153D01*
X26094Y-24153D01*
X26138Y-24182D01*
X26142Y-24185D01*
X26115Y-24196D01*
X26073Y-24238D01*
X26050Y-24293D01*
X26050Y-24353D01*
X26050Y-24713D01*
X26073Y-24768D01*
X26115Y-24811D01*
X26170Y-24833D01*
X26230Y-24833D01*
X26427Y-24833D01*
X27181Y-25588D01*
X27110Y-25588D01*
X27008Y-25630D01*
X26972Y-25666D01*
X26070Y-25666D01*
X25825Y-25435D01*
X25825Y-25393D01*
X25810Y-25357D01*
X25810Y-25043D01*
X25810Y-24664D01*
X25802Y-24645D01*
X25788Y-24631D01*
X25770Y-24623D01*
X25750Y-24623D01*
X25642Y-24623D01*
X25630Y-24636D01*
X25630Y-24803D01*
X25797Y-24803D01*
X25810Y-24791D01*
X25810Y-24664D01*
X25810Y-25043D01*
X25810Y-24916D01*
X25797Y-24903D01*
X25630Y-24903D01*
X25630Y-25071D01*
X25642Y-25083D01*
X25750Y-25083D01*
X25770Y-25083D01*
X25788Y-25076D01*
X25802Y-25062D01*
X25810Y-25043D01*
X25810Y-25357D01*
X25783Y-25291D01*
X25704Y-25213D01*
X25602Y-25170D01*
X25530Y-25170D01*
X25530Y-25071D01*
X25530Y-24903D01*
X25530Y-24803D01*
X25530Y-24636D01*
X25517Y-24623D01*
X25410Y-24623D01*
X25390Y-24623D01*
X25371Y-24631D01*
X25357Y-24645D01*
X25350Y-24664D01*
X25350Y-24791D01*
X25362Y-24803D01*
X25530Y-24803D01*
X25530Y-24903D01*
X25362Y-24903D01*
X25350Y-24916D01*
X25350Y-25043D01*
X25357Y-25062D01*
X25371Y-25076D01*
X25390Y-25083D01*
X25410Y-25083D01*
X25517Y-25083D01*
X25530Y-25071D01*
X25530Y-25170D01*
X25492Y-25170D01*
X25390Y-25213D01*
X25311Y-25291D01*
X25269Y-25393D01*
X25269Y-25410D01*
X24711Y-24851D01*
X24630Y-24798D01*
X24598Y-24791D01*
X24590Y-24772D01*
X24463Y-24646D01*
X24298Y-24577D01*
X24119Y-24577D01*
X23954Y-24645D01*
X23827Y-24772D01*
X23758Y-24937D01*
X23758Y-25116D01*
X23826Y-25282D01*
X23953Y-25408D01*
X24118Y-25477D01*
X24297Y-25477D01*
X24463Y-25409D01*
X24514Y-25358D01*
X26234Y-27077D01*
X26306Y-27252D01*
X26459Y-27405D01*
X26519Y-27430D01*
X26519Y-28388D01*
X26460Y-28412D01*
X26307Y-28565D01*
X26287Y-28611D01*
X26287Y-27742D01*
X26205Y-27542D01*
X26052Y-27389D01*
X25852Y-27306D01*
X25636Y-27306D01*
X25576Y-27331D01*
X24642Y-26397D01*
X24658Y-26357D01*
X24658Y-26297D01*
X24658Y-25697D01*
X24635Y-25642D01*
X24593Y-25600D01*
X24538Y-25577D01*
X24478Y-25577D01*
X23878Y-25577D01*
X23823Y-25600D01*
X23781Y-25642D01*
X23758Y-25697D01*
X23758Y-25757D01*
X23758Y-26357D01*
X23781Y-26412D01*
X23823Y-26454D01*
X23878Y-26477D01*
X23938Y-26477D01*
X24024Y-26477D01*
X24032Y-26490D01*
X25225Y-27682D01*
X25200Y-27741D01*
X25200Y-27958D01*
X25282Y-28157D01*
X25435Y-28311D01*
X25635Y-28393D01*
X25851Y-28394D01*
X26051Y-28311D01*
X26204Y-28158D01*
X26287Y-27959D01*
X26287Y-27742D01*
X26287Y-28611D01*
X26224Y-28765D01*
X26223Y-28981D01*
X26306Y-29181D01*
X26459Y-29334D01*
X26659Y-29417D01*
X26875Y-29417D01*
X27075Y-29335D01*
X27228Y-29182D01*
X27311Y-28982D01*
X27311Y-28766D01*
X27228Y-28566D01*
X27076Y-28413D01*
X27016Y-28388D01*
X27016Y-27430D01*
X27075Y-27406D01*
X27228Y-27253D01*
X27311Y-27053D01*
X27311Y-26837D01*
X27228Y-26637D01*
X27076Y-26484D01*
X26876Y-26401D01*
X26660Y-26401D01*
X26460Y-26483D01*
X26401Y-26542D01*
X25899Y-26039D01*
X25915Y-26050D01*
X25917Y-26051D01*
X25921Y-26053D01*
X25965Y-26060D01*
X25992Y-26066D01*
X25997Y-26066D01*
X25998Y-26066D01*
X25998Y-26066D01*
X26972Y-26066D01*
X27007Y-26101D01*
X27109Y-26144D01*
X27220Y-26144D01*
X27322Y-26101D01*
X27400Y-26023D01*
X27443Y-25921D01*
X27443Y-25849D01*
X27542Y-25949D01*
X27542Y-27306D01*
X27367Y-27306D01*
X27312Y-27329D01*
X27270Y-27371D01*
X27247Y-27426D01*
X27247Y-27486D01*
X27247Y-28273D01*
X27270Y-28328D01*
X27312Y-28371D01*
X27367Y-28394D01*
X27427Y-28394D01*
X28214Y-28394D01*
X28269Y-28371D01*
X28312Y-28329D01*
X28335Y-28274D01*
X28335Y-28214D01*
X28335Y-27426D01*
X28312Y-27371D01*
X28270Y-27329D01*
X28215Y-27306D01*
X28155Y-27306D01*
X28039Y-27306D01*
X28039Y-25914D01*
X28020Y-25819D01*
X27967Y-25739D01*
X27886Y-25685D01*
X27834Y-25675D01*
X26710Y-24551D01*
X26710Y-24294D01*
X26687Y-24239D01*
X26660Y-24211D01*
X27551Y-24211D01*
X27626Y-24287D01*
X27746Y-24336D01*
X27875Y-24336D01*
X27994Y-24287D01*
X28070Y-24211D01*
X28165Y-24211D01*
X28220Y-24211D01*
X28220Y-24266D01*
X28243Y-24321D01*
X28285Y-24363D01*
X28340Y-24386D01*
X28399Y-24386D01*
X28499Y-24386D01*
X28421Y-24464D01*
X28379Y-24566D01*
X28379Y-24677D01*
X28421Y-24779D01*
X28496Y-24854D01*
X28384Y-24966D01*
X28278Y-24966D01*
X28158Y-25015D01*
X28067Y-25107D01*
X28017Y-25226D01*
X28017Y-25355D01*
X28066Y-25475D01*
X28158Y-25566D01*
X28277Y-25616D01*
X28406Y-25616D01*
X28526Y-25567D01*
X28617Y-25475D01*
X28667Y-25356D01*
X28667Y-25249D01*
X29236Y-24680D01*
X29280Y-24615D01*
X29280Y-24615D01*
X29282Y-24602D01*
X29295Y-24538D01*
X29295Y-24538D01*
X29295Y-24368D01*
X29305Y-24364D01*
X29347Y-24321D01*
X29370Y-24266D01*
X29370Y-24207D01*
X29370Y-23916D01*
X29393Y-23893D01*
X29393Y-30357D01*
X29393Y-30357D01*
G37*
G54D30*
X29393Y-30357D02*
X23433Y-30357D01*
X23433Y-23578D01*
X23615Y-23760D01*
X23615Y-23810D01*
X23657Y-23913D01*
X23736Y-23991D01*
X23838Y-24033D01*
X23948Y-24033D01*
X24050Y-23991D01*
X24129Y-23913D01*
X24171Y-23811D01*
X24171Y-23804D01*
X24342Y-23976D01*
X24342Y-23976D01*
X24407Y-24019D01*
X24407Y-24019D01*
X24420Y-24021D01*
X24463Y-24030D01*
X24463Y-24039D01*
X24463Y-24289D01*
X24486Y-24344D01*
X24528Y-24386D01*
X24583Y-24409D01*
X24643Y-24409D01*
X25093Y-24409D01*
X25148Y-24386D01*
X25181Y-24353D01*
X25250Y-24353D01*
X25250Y-24363D01*
X25273Y-24418D01*
X25315Y-24461D01*
X25370Y-24483D01*
X25430Y-24483D01*
X25790Y-24483D01*
X25845Y-24461D01*
X25887Y-24419D01*
X25910Y-24363D01*
X25910Y-24304D01*
X25910Y-23995D01*
X25936Y-23995D01*
X26094Y-24153D01*
X26094Y-24153D01*
X26138Y-24182D01*
X26142Y-24185D01*
X26115Y-24196D01*
X26073Y-24238D01*
X26050Y-24293D01*
X26050Y-24353D01*
X26050Y-24713D01*
X26073Y-24768D01*
X26115Y-24811D01*
X26170Y-24833D01*
X26230Y-24833D01*
X26427Y-24833D01*
X27181Y-25588D01*
X27110Y-25588D01*
X27008Y-25630D01*
X26972Y-25666D01*
X26070Y-25666D01*
X25825Y-25435D01*
X25825Y-25393D01*
X25810Y-25357D01*
X25810Y-25043D01*
X25810Y-24664D01*
X25802Y-24645D01*
X25788Y-24631D01*
X25770Y-24623D01*
X25750Y-24623D01*
X25642Y-24623D01*
X25630Y-24636D01*
X25630Y-24803D01*
X25797Y-24803D01*
X25810Y-24791D01*
X25810Y-24664D01*
X25810Y-25043D01*
X25810Y-24916D01*
X25797Y-24903D01*
X25630Y-24903D01*
X25630Y-25071D01*
X25642Y-25083D01*
X25750Y-25083D01*
X25770Y-25083D01*
X25788Y-25076D01*
X25802Y-25062D01*
X25810Y-25043D01*
X25810Y-25357D01*
X25783Y-25291D01*
X25704Y-25213D01*
X25602Y-25170D01*
X25530Y-25170D01*
X25530Y-25071D01*
X25530Y-24903D01*
X25530Y-24803D01*
X25530Y-24636D01*
X25517Y-24623D01*
X25410Y-24623D01*
X25390Y-24623D01*
X25371Y-24631D01*
X25357Y-24645D01*
X25350Y-24664D01*
X25350Y-24791D01*
X25362Y-24803D01*
X25530Y-24803D01*
X25530Y-24903D01*
X25362Y-24903D01*
X25350Y-24916D01*
X25350Y-25043D01*
X25357Y-25062D01*
X25371Y-25076D01*
X25390Y-25083D01*
X25410Y-25083D01*
X25517Y-25083D01*
X25530Y-25071D01*
X25530Y-25170D01*
X25492Y-25170D01*
X25390Y-25213D01*
X25311Y-25291D01*
X25269Y-25393D01*
X25269Y-25410D01*
X24711Y-24851D01*
X24630Y-24798D01*
X24598Y-24791D01*
X24590Y-24772D01*
X24463Y-24646D01*
X24298Y-24577D01*
X24119Y-24577D01*
X23954Y-24645D01*
X23827Y-24772D01*
X23758Y-24937D01*
X23758Y-25116D01*
X23826Y-25282D01*
X23953Y-25408D01*
X24118Y-25477D01*
X24297Y-25477D01*
X24463Y-25409D01*
X24514Y-25358D01*
X26234Y-27077D01*
X26306Y-27252D01*
X26459Y-27405D01*
X26519Y-27430D01*
X26519Y-28388D01*
X26460Y-28412D01*
X26307Y-28565D01*
X26287Y-28611D01*
X26287Y-27742D01*
X26205Y-27542D01*
X26052Y-27389D01*
X25852Y-27306D01*
X25636Y-27306D01*
X25576Y-27331D01*
X24642Y-26397D01*
X24658Y-26357D01*
X24658Y-26297D01*
X24658Y-25697D01*
X24635Y-25642D01*
X24593Y-25600D01*
X24538Y-25577D01*
X24478Y-25577D01*
X23878Y-25577D01*
X23823Y-25600D01*
X23781Y-25642D01*
X23758Y-25697D01*
X23758Y-25757D01*
X23758Y-26357D01*
X23781Y-26412D01*
X23823Y-26454D01*
X23878Y-26477D01*
X23938Y-26477D01*
X24024Y-26477D01*
X24032Y-26490D01*
X25225Y-27682D01*
X25200Y-27741D01*
X25200Y-27958D01*
X25282Y-28157D01*
X25435Y-28311D01*
X25635Y-28393D01*
X25851Y-28394D01*
X26051Y-28311D01*
X26204Y-28158D01*
X26287Y-27959D01*
X26287Y-27742D01*
X26287Y-28611D01*
X26224Y-28765D01*
X26223Y-28981D01*
X26306Y-29181D01*
X26459Y-29334D01*
X26659Y-29417D01*
X26875Y-29417D01*
X27075Y-29335D01*
X27228Y-29182D01*
X27311Y-28982D01*
X27311Y-28766D01*
X27228Y-28566D01*
X27076Y-28413D01*
X27016Y-28388D01*
X27016Y-27430D01*
X27075Y-27406D01*
X27228Y-27253D01*
X27311Y-27053D01*
X27311Y-26837D01*
X27228Y-26637D01*
X27076Y-26484D01*
X26876Y-26401D01*
X26660Y-26401D01*
X26460Y-26483D01*
X26401Y-26542D01*
X25899Y-26039D01*
X25915Y-26050D01*
X25917Y-26051D01*
X25921Y-26053D01*
X25965Y-26060D01*
X25992Y-26066D01*
X25997Y-26066D01*
X25998Y-26066D01*
X25998Y-26066D01*
X26972Y-26066D01*
X27007Y-26101D01*
X27109Y-26144D01*
X27220Y-26144D01*
X27322Y-26101D01*
X27400Y-26023D01*
X27443Y-25921D01*
X27443Y-25849D01*
X27542Y-25949D01*
X27542Y-27306D01*
X27367Y-27306D01*
X27312Y-27329D01*
X27270Y-27371D01*
X27247Y-27426D01*
X27247Y-27486D01*
X27247Y-28273D01*
X27270Y-28328D01*
X27312Y-28371D01*
X27367Y-28394D01*
X27427Y-28394D01*
X28214Y-28394D01*
X28269Y-28371D01*
X28312Y-28329D01*
X28335Y-28274D01*
X28335Y-28214D01*
X28335Y-27426D01*
X28312Y-27371D01*
X28270Y-27329D01*
X28215Y-27306D01*
X28155Y-27306D01*
X28039Y-27306D01*
X28039Y-25914D01*
X28020Y-25819D01*
X27967Y-25739D01*
X27886Y-25685D01*
X27834Y-25675D01*
X26710Y-24551D01*
X26710Y-24294D01*
X26687Y-24239D01*
X26660Y-24211D01*
X27551Y-24211D01*
X27626Y-24287D01*
X27746Y-24336D01*
X27875Y-24336D01*
X27994Y-24287D01*
X28070Y-24211D01*
X28165Y-24211D01*
X28220Y-24211D01*
X28220Y-24266D01*
X28243Y-24321D01*
X28285Y-24363D01*
X28340Y-24386D01*
X28399Y-24386D01*
X28499Y-24386D01*
X28421Y-24464D01*
X28379Y-24566D01*
X28379Y-24677D01*
X28421Y-24779D01*
X28496Y-24854D01*
X28384Y-24966D01*
X28278Y-24966D01*
X28158Y-25015D01*
X28067Y-25107D01*
X28017Y-25226D01*
X28017Y-25355D01*
X28066Y-25475D01*
X28158Y-25566D01*
X28277Y-25616D01*
X28406Y-25616D01*
X28526Y-25567D01*
X28617Y-25475D01*
X28667Y-25356D01*
X28667Y-25249D01*
X29236Y-24680D01*
X29280Y-24615D01*
X29280Y-24615D01*
X29282Y-24602D01*
X29295Y-24538D01*
X29295Y-24538D01*
X29295Y-24368D01*
X29305Y-24364D01*
X29347Y-24321D01*
X29370Y-24266D01*
X29370Y-24207D01*
X29370Y-23916D01*
X29393Y-23893D01*
X29393Y-30357D01*
M02*
