G04 (created by PCBNEW (2013-07-24 BZR 4024)-stable) date Tue 25 Nov 2014 11:30:04 AM NZDT*
%MOIN*%
G04 Gerber Fmt 3.4, Leading zero omitted, Abs format*
%FSLAX34Y34*%
G01*
G70*
G90*
G04 APERTURE LIST*
%ADD10C,0.00590551*%
%ADD11R,0.0787402X0.0787402*%
%ADD12C,0.0787402*%
%ADD13R,0.05X0.1*%
%ADD14O,0.0137795X0.0314961*%
%ADD15O,0.0314961X0.0137795*%
%ADD16R,0.125984X0.125984*%
%ADD17R,0.0748X0.0669*%
%ADD18C,0.0669*%
%ADD19R,0.0315X0.025*%
%ADD20R,0.045X0.025*%
%ADD21R,0.025X0.045*%
%ADD22R,0.036X0.036*%
%ADD23R,0.0314X0.0314*%
%ADD24R,0.055X0.055*%
%ADD25C,0.055*%
%ADD26R,0.06X0.06*%
%ADD27C,0.06*%
G04 APERTURE END LIST*
G54D10*
G54D11*
X27791Y-27850D03*
G54D12*
X25744Y-27850D03*
X26767Y-28874D03*
X26767Y-26944D03*
G54D13*
X27781Y-18204D03*
X28981Y-18204D03*
G54D14*
X24858Y-21137D03*
G54D15*
X24622Y-21374D03*
X24622Y-21570D03*
X24622Y-21767D03*
X24622Y-21964D03*
X24622Y-22161D03*
X24622Y-22358D03*
X24622Y-22555D03*
X24622Y-22751D03*
G54D14*
X24858Y-22988D03*
X25055Y-22988D03*
X25251Y-22988D03*
X25448Y-22988D03*
X25645Y-22988D03*
X25842Y-22988D03*
X26039Y-22988D03*
X26236Y-22988D03*
G54D15*
X26472Y-22751D03*
X26472Y-22751D03*
X26472Y-22555D03*
X26472Y-22358D03*
X26472Y-22161D03*
X26472Y-21964D03*
X26472Y-21767D03*
X26472Y-21570D03*
X26472Y-21374D03*
G54D14*
X26236Y-21137D03*
X26039Y-21137D03*
X25842Y-21137D03*
X25645Y-21137D03*
X25448Y-21137D03*
X25251Y-21137D03*
X25055Y-21137D03*
X24858Y-21137D03*
G54D16*
X25547Y-22062D03*
G54D17*
X28803Y-23062D03*
G54D18*
X27803Y-23062D03*
X28803Y-22062D03*
X27803Y-22062D03*
X28803Y-21062D03*
X27803Y-21062D03*
G54D19*
X23834Y-22359D03*
X23834Y-21759D03*
G54D20*
X24838Y-24134D03*
X24838Y-23534D03*
G54D21*
X28495Y-24011D03*
X29095Y-24011D03*
G54D20*
X24799Y-19558D03*
X24799Y-20158D03*
X26570Y-19558D03*
X26570Y-20158D03*
X28303Y-19518D03*
X28303Y-20118D03*
G54D22*
X25580Y-24853D03*
X25580Y-24153D03*
X26380Y-24503D03*
G54D23*
X27358Y-20113D03*
X27358Y-19523D03*
X25625Y-20153D03*
X25625Y-19563D03*
X23854Y-20153D03*
X23854Y-19563D03*
G54D20*
X23854Y-18504D03*
X23854Y-17904D03*
G54D24*
X24783Y-18204D03*
G54D25*
X25783Y-18204D03*
X26783Y-18204D03*
G54D26*
X24208Y-26027D03*
G54D27*
X24208Y-25027D03*
M02*
