G04 (created by PCBNEW (2013-07-24 BZR 4024)-stable) date Tue 25 Nov 2014 11:30:04 AM NZDT*
%MOIN*%
G04 Gerber Fmt 3.4, Leading zero omitted, Abs format*
%FSLAX34Y34*%
G01*
G70*
G90*
G04 APERTURE LIST*
%ADD10C,0.00590551*%
%ADD11C,0.005*%
%ADD12C,0.00787402*%
%ADD13C,0.008*%
%ADD14C,0.0026*%
%ADD15C,0.004*%
%ADD16C,0.012*%
%ADD17C,0.006*%
%ADD18C,0.00393701*%
%ADD19C,0.0043*%
%ADD20C,0.0039*%
%ADD21C,0.0045*%
%ADD22C,0.00492126*%
G04 APERTURE END LIST*
G54D10*
X26511Y-25850D02*
X26944Y-26283D01*
X26511Y-26283D02*
X26956Y-25838D01*
X26280Y-27858D02*
G75*
G03X26280Y-27858I-548J0D01*
G74*
G01*
X27298Y-28874D02*
G75*
G03X27298Y-28874I-539J0D01*
G74*
G01*
X27271Y-28358D02*
X27271Y-27362D01*
X28295Y-28358D02*
X27271Y-28358D01*
X28295Y-27354D02*
X28295Y-28358D01*
X27287Y-27354D02*
X28295Y-27354D01*
X29292Y-27850D02*
G75*
G03X29292Y-27850I-2525J0D01*
G74*
G01*
X27515Y-18795D02*
G75*
G03X27515Y-18795I-78J0D01*
G74*
G01*
G54D11*
X28081Y-17654D02*
X27481Y-17654D01*
X27481Y-17654D02*
X27481Y-18754D01*
X27481Y-18754D02*
X28081Y-18754D01*
X28681Y-18754D02*
X29281Y-18754D01*
X29281Y-18754D02*
X29281Y-17654D01*
X29281Y-17654D02*
X28681Y-17654D01*
G54D12*
X24661Y-21078D02*
G75*
G03X24661Y-21078I-98J0D01*
G74*
G01*
X24759Y-21078D02*
X26334Y-21078D01*
X26334Y-21078D02*
X26531Y-21275D01*
X26531Y-21275D02*
X26531Y-22850D01*
X26531Y-22850D02*
X26334Y-23047D01*
X26334Y-23047D02*
X24759Y-23047D01*
X24759Y-23047D02*
X24562Y-22850D01*
X24562Y-22850D02*
X24562Y-21275D01*
X24562Y-21275D02*
X24759Y-21078D01*
G54D13*
X29303Y-20562D02*
X29303Y-23562D01*
X27303Y-23562D02*
X27303Y-20562D01*
X27303Y-20562D02*
X29303Y-20562D01*
X29303Y-23562D02*
X27303Y-23562D01*
G54D11*
X24070Y-22571D02*
X24070Y-21567D01*
X23598Y-21547D02*
X23598Y-22571D01*
X23598Y-22571D02*
X24070Y-22571D01*
X23602Y-21558D02*
X24062Y-21558D01*
X24588Y-24284D02*
X24588Y-23384D01*
X24588Y-23384D02*
X25088Y-23384D01*
X25088Y-23384D02*
X25088Y-24284D01*
X25088Y-24284D02*
X24588Y-24284D01*
X28345Y-23761D02*
X29245Y-23761D01*
X29245Y-23761D02*
X29245Y-24261D01*
X29245Y-24261D02*
X28345Y-24261D01*
X28345Y-24261D02*
X28345Y-23761D01*
X25049Y-19408D02*
X25049Y-20308D01*
X25049Y-20308D02*
X24549Y-20308D01*
X24549Y-20308D02*
X24549Y-19408D01*
X24549Y-19408D02*
X25049Y-19408D01*
X26820Y-19408D02*
X26820Y-20308D01*
X26820Y-20308D02*
X26320Y-20308D01*
X26320Y-20308D02*
X26320Y-19408D01*
X26320Y-19408D02*
X26820Y-19408D01*
X28553Y-19368D02*
X28553Y-20268D01*
X28553Y-20268D02*
X28053Y-20268D01*
X28053Y-20268D02*
X28053Y-19368D01*
X28053Y-19368D02*
X28553Y-19368D01*
X25830Y-25103D02*
X25830Y-23903D01*
X25830Y-23903D02*
X26130Y-23903D01*
X26130Y-23903D02*
X26130Y-25103D01*
X26130Y-25103D02*
X25830Y-25103D01*
G54D14*
X27181Y-19641D02*
X27535Y-19641D01*
X27535Y-19641D02*
X27535Y-19484D01*
X27181Y-19484D02*
X27535Y-19484D01*
X27181Y-19641D02*
X27181Y-19484D01*
X27181Y-20152D02*
X27535Y-20152D01*
X27535Y-20152D02*
X27535Y-19995D01*
X27181Y-19995D02*
X27535Y-19995D01*
X27181Y-20152D02*
X27181Y-19995D01*
X27181Y-19818D02*
X27240Y-19818D01*
X27240Y-19818D02*
X27240Y-19700D01*
X27181Y-19700D02*
X27240Y-19700D01*
X27181Y-19818D02*
X27181Y-19700D01*
X27476Y-19818D02*
X27535Y-19818D01*
X27535Y-19818D02*
X27535Y-19700D01*
X27476Y-19700D02*
X27535Y-19700D01*
X27476Y-19818D02*
X27476Y-19700D01*
X27299Y-19818D02*
X27417Y-19818D01*
X27417Y-19818D02*
X27417Y-19700D01*
X27299Y-19700D02*
X27417Y-19700D01*
X27299Y-19818D02*
X27299Y-19700D01*
G54D15*
X27201Y-19641D02*
X27201Y-19995D01*
X27515Y-19641D02*
X27515Y-19995D01*
G54D14*
X25448Y-19681D02*
X25802Y-19681D01*
X25802Y-19681D02*
X25802Y-19524D01*
X25448Y-19524D02*
X25802Y-19524D01*
X25448Y-19681D02*
X25448Y-19524D01*
X25448Y-20192D02*
X25802Y-20192D01*
X25802Y-20192D02*
X25802Y-20035D01*
X25448Y-20035D02*
X25802Y-20035D01*
X25448Y-20192D02*
X25448Y-20035D01*
X25448Y-19858D02*
X25507Y-19858D01*
X25507Y-19858D02*
X25507Y-19740D01*
X25448Y-19740D02*
X25507Y-19740D01*
X25448Y-19858D02*
X25448Y-19740D01*
X25743Y-19858D02*
X25802Y-19858D01*
X25802Y-19858D02*
X25802Y-19740D01*
X25743Y-19740D02*
X25802Y-19740D01*
X25743Y-19858D02*
X25743Y-19740D01*
X25566Y-19858D02*
X25684Y-19858D01*
X25684Y-19858D02*
X25684Y-19740D01*
X25566Y-19740D02*
X25684Y-19740D01*
X25566Y-19858D02*
X25566Y-19740D01*
G54D15*
X25468Y-19681D02*
X25468Y-20035D01*
X25782Y-19681D02*
X25782Y-20035D01*
G54D14*
X23677Y-19681D02*
X24031Y-19681D01*
X24031Y-19681D02*
X24031Y-19524D01*
X23677Y-19524D02*
X24031Y-19524D01*
X23677Y-19681D02*
X23677Y-19524D01*
X23677Y-20192D02*
X24031Y-20192D01*
X24031Y-20192D02*
X24031Y-20035D01*
X23677Y-20035D02*
X24031Y-20035D01*
X23677Y-20192D02*
X23677Y-20035D01*
X23677Y-19858D02*
X23736Y-19858D01*
X23736Y-19858D02*
X23736Y-19740D01*
X23677Y-19740D02*
X23736Y-19740D01*
X23677Y-19858D02*
X23677Y-19740D01*
X23972Y-19858D02*
X24031Y-19858D01*
X24031Y-19858D02*
X24031Y-19740D01*
X23972Y-19740D02*
X24031Y-19740D01*
X23972Y-19858D02*
X23972Y-19740D01*
X23795Y-19858D02*
X23913Y-19858D01*
X23913Y-19858D02*
X23913Y-19740D01*
X23795Y-19740D02*
X23913Y-19740D01*
X23795Y-19858D02*
X23795Y-19740D01*
G54D15*
X23697Y-19681D02*
X23697Y-20035D01*
X24011Y-19681D02*
X24011Y-20035D01*
G54D11*
X23604Y-18654D02*
X23604Y-17754D01*
X23604Y-17754D02*
X24104Y-17754D01*
X24104Y-17754D02*
X24104Y-18654D01*
X24104Y-18654D02*
X23604Y-18654D01*
G54D16*
X24283Y-18704D02*
X24283Y-17704D01*
X24283Y-17704D02*
X27283Y-17704D01*
X27283Y-17704D02*
X27283Y-18704D01*
X27283Y-18704D02*
X24283Y-18704D01*
X25283Y-17704D02*
X25283Y-18704D01*
G54D17*
X24708Y-26527D02*
X23708Y-26527D01*
X23708Y-26527D02*
X23708Y-24527D01*
X23708Y-24527D02*
X24708Y-24527D01*
X24708Y-24527D02*
X24708Y-26527D01*
G54D10*
X28801Y-25733D02*
X28651Y-25733D01*
X28651Y-25418D01*
X29071Y-25733D02*
X28891Y-25733D01*
X28981Y-25733D02*
X28981Y-25418D01*
X28951Y-25463D01*
X28921Y-25493D01*
X28891Y-25508D01*
G54D18*
X25824Y-29673D02*
X25937Y-29673D01*
X25802Y-29741D02*
X25880Y-29505D01*
X25959Y-29741D01*
X26038Y-29505D02*
X26038Y-29696D01*
X26049Y-29718D01*
X26060Y-29730D01*
X26083Y-29741D01*
X26128Y-29741D01*
X26150Y-29730D01*
X26161Y-29718D01*
X26173Y-29696D01*
X26173Y-29505D01*
X26251Y-29505D02*
X26386Y-29505D01*
X26319Y-29741D02*
X26319Y-29505D01*
X26510Y-29505D02*
X26555Y-29505D01*
X26578Y-29516D01*
X26600Y-29538D01*
X26611Y-29583D01*
X26611Y-29662D01*
X26600Y-29707D01*
X26578Y-29730D01*
X26555Y-29741D01*
X26510Y-29741D01*
X26488Y-29730D01*
X26465Y-29707D01*
X26454Y-29662D01*
X26454Y-29583D01*
X26465Y-29538D01*
X26488Y-29516D01*
X26510Y-29505D01*
X26679Y-29505D02*
X26814Y-29505D01*
X26746Y-29741D02*
X26746Y-29505D01*
X27028Y-29741D02*
X26949Y-29628D01*
X26893Y-29741D02*
X26893Y-29505D01*
X26983Y-29505D01*
X27005Y-29516D01*
X27016Y-29527D01*
X27028Y-29550D01*
X27028Y-29583D01*
X27016Y-29606D01*
X27005Y-29617D01*
X26983Y-29628D01*
X26893Y-29628D01*
X27118Y-29673D02*
X27230Y-29673D01*
X27095Y-29741D02*
X27174Y-29505D01*
X27253Y-29741D01*
X27331Y-29741D02*
X27331Y-29505D01*
X27466Y-29741D01*
X27466Y-29505D01*
X27568Y-29730D02*
X27601Y-29741D01*
X27658Y-29741D01*
X27680Y-29730D01*
X27691Y-29718D01*
X27703Y-29696D01*
X27703Y-29673D01*
X27691Y-29651D01*
X27680Y-29640D01*
X27658Y-29628D01*
X27613Y-29617D01*
X27590Y-29606D01*
X27579Y-29595D01*
X27568Y-29572D01*
X27568Y-29550D01*
X27579Y-29527D01*
X27590Y-29516D01*
X27613Y-29505D01*
X27669Y-29505D01*
X27703Y-29516D01*
G54D19*
X28975Y-19098D02*
X28965Y-19108D01*
X28934Y-19119D01*
X28913Y-19119D01*
X28882Y-19108D01*
X28861Y-19088D01*
X28851Y-19067D01*
X28841Y-19026D01*
X28841Y-18995D01*
X28851Y-18953D01*
X28861Y-18933D01*
X28882Y-18912D01*
X28913Y-18902D01*
X28934Y-18902D01*
X28965Y-18912D01*
X28975Y-18922D01*
X29058Y-18922D02*
X29068Y-18912D01*
X29089Y-18902D01*
X29140Y-18902D01*
X29161Y-18912D01*
X29171Y-18922D01*
X29182Y-18943D01*
X29182Y-18964D01*
X29171Y-18995D01*
X29047Y-19119D01*
X29182Y-19119D01*
G54D10*
X23664Y-23056D02*
X23664Y-22741D01*
X23994Y-23026D02*
X23979Y-23041D01*
X23934Y-23056D01*
X23904Y-23056D01*
X23859Y-23041D01*
X23829Y-23011D01*
X23814Y-22981D01*
X23799Y-22921D01*
X23799Y-22876D01*
X23814Y-22816D01*
X23829Y-22786D01*
X23859Y-22756D01*
X23904Y-22741D01*
X23934Y-22741D01*
X23979Y-22756D01*
X23994Y-22771D01*
X24294Y-23056D02*
X24114Y-23056D01*
X24204Y-23056D02*
X24204Y-22741D01*
X24174Y-22786D01*
X24144Y-22816D01*
X24114Y-22831D01*
G54D18*
X24308Y-20706D02*
X24458Y-20706D01*
X24278Y-20796D02*
X24383Y-20481D01*
X24488Y-20796D01*
X24548Y-20481D02*
X24728Y-20481D01*
X24638Y-20796D02*
X24638Y-20481D01*
X24833Y-20796D02*
X24833Y-20586D01*
X24833Y-20616D02*
X24848Y-20601D01*
X24878Y-20586D01*
X24923Y-20586D01*
X24953Y-20601D01*
X24968Y-20631D01*
X24968Y-20796D01*
X24968Y-20631D02*
X24983Y-20601D01*
X25013Y-20586D01*
X25058Y-20586D01*
X25088Y-20601D01*
X25103Y-20631D01*
X25103Y-20796D01*
X25373Y-20781D02*
X25343Y-20796D01*
X25283Y-20796D01*
X25253Y-20781D01*
X25238Y-20751D01*
X25238Y-20631D01*
X25253Y-20601D01*
X25283Y-20586D01*
X25343Y-20586D01*
X25373Y-20601D01*
X25388Y-20631D01*
X25388Y-20661D01*
X25238Y-20691D01*
X25658Y-20586D02*
X25658Y-20841D01*
X25643Y-20871D01*
X25628Y-20886D01*
X25598Y-20901D01*
X25553Y-20901D01*
X25523Y-20886D01*
X25658Y-20781D02*
X25628Y-20796D01*
X25568Y-20796D01*
X25538Y-20781D01*
X25523Y-20766D01*
X25508Y-20736D01*
X25508Y-20646D01*
X25523Y-20616D01*
X25538Y-20601D01*
X25568Y-20586D01*
X25628Y-20586D01*
X25658Y-20601D01*
X25943Y-20796D02*
X25943Y-20631D01*
X25928Y-20601D01*
X25898Y-20586D01*
X25838Y-20586D01*
X25808Y-20601D01*
X25943Y-20781D02*
X25913Y-20796D01*
X25838Y-20796D01*
X25808Y-20781D01*
X25793Y-20751D01*
X25793Y-20721D01*
X25808Y-20691D01*
X25838Y-20676D01*
X25913Y-20676D01*
X25943Y-20661D01*
X26137Y-20616D02*
X26107Y-20601D01*
X26092Y-20586D01*
X26077Y-20556D01*
X26077Y-20541D01*
X26092Y-20511D01*
X26107Y-20496D01*
X26137Y-20481D01*
X26197Y-20481D01*
X26227Y-20496D01*
X26242Y-20511D01*
X26257Y-20541D01*
X26257Y-20556D01*
X26242Y-20586D01*
X26227Y-20601D01*
X26197Y-20616D01*
X26137Y-20616D01*
X26107Y-20631D01*
X26092Y-20646D01*
X26077Y-20676D01*
X26077Y-20736D01*
X26092Y-20766D01*
X26107Y-20781D01*
X26137Y-20796D01*
X26197Y-20796D01*
X26227Y-20781D01*
X26242Y-20766D01*
X26257Y-20736D01*
X26257Y-20676D01*
X26242Y-20646D01*
X26227Y-20631D01*
X26197Y-20616D01*
X26437Y-20616D02*
X26407Y-20601D01*
X26392Y-20586D01*
X26377Y-20556D01*
X26377Y-20541D01*
X26392Y-20511D01*
X26407Y-20496D01*
X26437Y-20481D01*
X26497Y-20481D01*
X26527Y-20496D01*
X26542Y-20511D01*
X26557Y-20541D01*
X26557Y-20556D01*
X26542Y-20586D01*
X26527Y-20601D01*
X26497Y-20616D01*
X26437Y-20616D01*
X26407Y-20631D01*
X26392Y-20646D01*
X26377Y-20676D01*
X26377Y-20736D01*
X26392Y-20766D01*
X26407Y-20781D01*
X26437Y-20796D01*
X26497Y-20796D01*
X26527Y-20781D01*
X26542Y-20766D01*
X26557Y-20736D01*
X26557Y-20676D01*
X26542Y-20646D01*
X26527Y-20631D01*
X26497Y-20616D01*
X26692Y-20796D02*
X26692Y-20481D01*
X26812Y-20481D01*
X26842Y-20496D01*
X26857Y-20511D01*
X26872Y-20541D01*
X26872Y-20586D01*
X26857Y-20616D01*
X26842Y-20631D01*
X26812Y-20646D01*
X26692Y-20646D01*
G54D13*
X29280Y-20378D02*
X28880Y-20378D01*
X29260Y-20207D02*
X29280Y-20150D01*
X29280Y-20054D01*
X29260Y-20016D01*
X29241Y-19997D01*
X29203Y-19978D01*
X29165Y-19978D01*
X29127Y-19997D01*
X29108Y-20016D01*
X29089Y-20054D01*
X29070Y-20131D01*
X29051Y-20169D01*
X29032Y-20188D01*
X28994Y-20207D01*
X28956Y-20207D01*
X28918Y-20188D01*
X28899Y-20169D01*
X28880Y-20131D01*
X28880Y-20035D01*
X28899Y-19978D01*
X29280Y-19807D02*
X28880Y-19807D01*
X28880Y-19654D01*
X28899Y-19616D01*
X28918Y-19597D01*
X28956Y-19578D01*
X29013Y-19578D01*
X29051Y-19597D01*
X29070Y-19616D01*
X29089Y-19654D01*
X29089Y-19807D01*
G54D20*
X23824Y-21448D02*
X23816Y-21460D01*
X23794Y-21471D01*
X23779Y-21471D01*
X23756Y-21460D01*
X23741Y-21437D01*
X23734Y-21414D01*
X23727Y-21368D01*
X23727Y-21333D01*
X23734Y-21287D01*
X23741Y-21264D01*
X23756Y-21242D01*
X23779Y-21230D01*
X23794Y-21230D01*
X23816Y-21242D01*
X23824Y-21253D01*
X23973Y-21471D02*
X23884Y-21471D01*
X23928Y-21471D02*
X23928Y-21230D01*
X23913Y-21264D01*
X23898Y-21287D01*
X23884Y-21299D01*
G54D21*
X24316Y-23584D02*
X24256Y-23489D01*
X24213Y-23584D02*
X24213Y-23384D01*
X24282Y-23384D01*
X24299Y-23394D01*
X24307Y-23403D01*
X24316Y-23422D01*
X24316Y-23451D01*
X24307Y-23470D01*
X24299Y-23480D01*
X24282Y-23489D01*
X24213Y-23489D01*
X24470Y-23384D02*
X24436Y-23384D01*
X24419Y-23394D01*
X24410Y-23403D01*
X24393Y-23432D01*
X24385Y-23470D01*
X24385Y-23546D01*
X24393Y-23565D01*
X24402Y-23575D01*
X24419Y-23584D01*
X24453Y-23584D01*
X24470Y-23575D01*
X24479Y-23565D01*
X24487Y-23546D01*
X24487Y-23499D01*
X24479Y-23480D01*
X24470Y-23470D01*
X24453Y-23461D01*
X24419Y-23461D01*
X24402Y-23470D01*
X24393Y-23480D01*
X24385Y-23499D01*
X29060Y-24604D02*
X29000Y-24509D01*
X28957Y-24604D02*
X28957Y-24404D01*
X29026Y-24404D01*
X29043Y-24414D01*
X29051Y-24423D01*
X29060Y-24442D01*
X29060Y-24471D01*
X29051Y-24490D01*
X29043Y-24499D01*
X29026Y-24509D01*
X28957Y-24509D01*
X29231Y-24604D02*
X29129Y-24604D01*
X29180Y-24604D02*
X29180Y-24404D01*
X29163Y-24433D01*
X29146Y-24452D01*
X29129Y-24461D01*
X24729Y-19269D02*
X24669Y-19174D01*
X24626Y-19269D02*
X24626Y-19069D01*
X24695Y-19069D01*
X24712Y-19079D01*
X24721Y-19088D01*
X24729Y-19108D01*
X24729Y-19136D01*
X24721Y-19155D01*
X24712Y-19165D01*
X24695Y-19174D01*
X24626Y-19174D01*
X24892Y-19069D02*
X24806Y-19069D01*
X24798Y-19165D01*
X24806Y-19155D01*
X24824Y-19146D01*
X24866Y-19146D01*
X24884Y-19155D01*
X24892Y-19165D01*
X24901Y-19184D01*
X24901Y-19231D01*
X24892Y-19250D01*
X24884Y-19260D01*
X24866Y-19269D01*
X24824Y-19269D01*
X24806Y-19260D01*
X24798Y-19250D01*
X26580Y-19269D02*
X26520Y-19174D01*
X26477Y-19269D02*
X26477Y-19069D01*
X26545Y-19069D01*
X26563Y-19079D01*
X26571Y-19088D01*
X26580Y-19108D01*
X26580Y-19136D01*
X26571Y-19155D01*
X26563Y-19165D01*
X26545Y-19174D01*
X26477Y-19174D01*
X26734Y-19136D02*
X26734Y-19269D01*
X26691Y-19060D02*
X26648Y-19203D01*
X26760Y-19203D01*
X28273Y-19269D02*
X28213Y-19174D01*
X28170Y-19269D02*
X28170Y-19069D01*
X28238Y-19069D01*
X28256Y-19079D01*
X28264Y-19088D01*
X28273Y-19108D01*
X28273Y-19136D01*
X28264Y-19155D01*
X28256Y-19165D01*
X28238Y-19174D01*
X28170Y-19174D01*
X28333Y-19069D02*
X28444Y-19069D01*
X28384Y-19146D01*
X28410Y-19146D01*
X28427Y-19155D01*
X28436Y-19165D01*
X28444Y-19184D01*
X28444Y-19231D01*
X28436Y-19250D01*
X28427Y-19260D01*
X28410Y-19269D01*
X28358Y-19269D01*
X28341Y-19260D01*
X28333Y-19250D01*
G54D22*
X26505Y-24137D02*
X26475Y-24124D01*
X26445Y-24098D01*
X26400Y-24059D01*
X26370Y-24045D01*
X26340Y-24045D01*
X26355Y-24111D02*
X26325Y-24098D01*
X26295Y-24072D01*
X26280Y-24019D01*
X26280Y-23927D01*
X26295Y-23875D01*
X26325Y-23849D01*
X26355Y-23835D01*
X26415Y-23835D01*
X26445Y-23849D01*
X26475Y-23875D01*
X26490Y-23927D01*
X26490Y-24019D01*
X26475Y-24072D01*
X26445Y-24098D01*
X26415Y-24111D01*
X26355Y-24111D01*
X26790Y-24111D02*
X26610Y-24111D01*
X26700Y-24111D02*
X26700Y-23835D01*
X26670Y-23875D01*
X26640Y-23901D01*
X26610Y-23914D01*
G54D11*
X27210Y-19269D02*
X27210Y-19069D01*
X27258Y-19069D01*
X27286Y-19079D01*
X27305Y-19098D01*
X27315Y-19117D01*
X27324Y-19155D01*
X27324Y-19184D01*
X27315Y-19222D01*
X27305Y-19241D01*
X27286Y-19260D01*
X27258Y-19269D01*
X27210Y-19269D01*
X27515Y-19269D02*
X27401Y-19269D01*
X27458Y-19269D02*
X27458Y-19069D01*
X27439Y-19098D01*
X27420Y-19117D01*
X27401Y-19127D01*
X27839Y-19947D02*
X27743Y-20014D01*
X27839Y-20061D02*
X27639Y-20061D01*
X27639Y-19985D01*
X27648Y-19966D01*
X27658Y-19956D01*
X27677Y-19947D01*
X27705Y-19947D01*
X27724Y-19956D01*
X27734Y-19966D01*
X27743Y-19985D01*
X27743Y-20061D01*
X27734Y-19861D02*
X27734Y-19795D01*
X27839Y-19766D02*
X27839Y-19861D01*
X27639Y-19861D01*
X27639Y-19766D01*
X27839Y-19680D02*
X27639Y-19680D01*
X27639Y-19633D01*
X27648Y-19604D01*
X27667Y-19585D01*
X27686Y-19576D01*
X27724Y-19566D01*
X27753Y-19566D01*
X27791Y-19576D01*
X27810Y-19585D01*
X27829Y-19604D01*
X27839Y-19633D01*
X27839Y-19680D01*
X25478Y-19269D02*
X25478Y-19069D01*
X25525Y-19069D01*
X25554Y-19079D01*
X25573Y-19098D01*
X25583Y-19117D01*
X25592Y-19155D01*
X25592Y-19184D01*
X25583Y-19222D01*
X25573Y-19241D01*
X25554Y-19260D01*
X25525Y-19269D01*
X25478Y-19269D01*
X25668Y-19088D02*
X25678Y-19079D01*
X25697Y-19069D01*
X25745Y-19069D01*
X25764Y-19079D01*
X25773Y-19088D01*
X25783Y-19108D01*
X25783Y-19127D01*
X25773Y-19155D01*
X25659Y-19269D01*
X25783Y-19269D01*
X26011Y-20329D02*
X26106Y-20329D01*
X25906Y-20396D02*
X26011Y-20329D01*
X25906Y-20263D01*
X26002Y-20196D02*
X26002Y-20129D01*
X26106Y-20101D02*
X26106Y-20196D01*
X25906Y-20196D01*
X25906Y-20101D01*
X26106Y-19920D02*
X26106Y-20015D01*
X25906Y-20015D01*
X26106Y-19758D02*
X26106Y-19853D01*
X25906Y-19853D01*
X25906Y-19653D02*
X25906Y-19615D01*
X25916Y-19596D01*
X25935Y-19577D01*
X25973Y-19567D01*
X26040Y-19567D01*
X26078Y-19577D01*
X26097Y-19596D01*
X26106Y-19615D01*
X26106Y-19653D01*
X26097Y-19672D01*
X26078Y-19691D01*
X26040Y-19701D01*
X25973Y-19701D01*
X25935Y-19691D01*
X25916Y-19672D01*
X25906Y-19653D01*
X25906Y-19501D02*
X26106Y-19453D01*
X25964Y-19415D01*
X26106Y-19377D01*
X25906Y-19329D01*
X23706Y-19269D02*
X23706Y-19069D01*
X23754Y-19069D01*
X23782Y-19079D01*
X23801Y-19098D01*
X23811Y-19117D01*
X23820Y-19155D01*
X23820Y-19184D01*
X23811Y-19222D01*
X23801Y-19241D01*
X23782Y-19260D01*
X23754Y-19269D01*
X23706Y-19269D01*
X23887Y-19069D02*
X24011Y-19069D01*
X23944Y-19146D01*
X23973Y-19146D01*
X23992Y-19155D01*
X24001Y-19165D01*
X24011Y-19184D01*
X24011Y-19231D01*
X24001Y-19250D01*
X23992Y-19260D01*
X23973Y-19269D01*
X23916Y-19269D01*
X23897Y-19260D01*
X23887Y-19250D01*
X24144Y-20191D02*
X24135Y-20210D01*
X24135Y-20239D01*
X24144Y-20267D01*
X24163Y-20286D01*
X24182Y-20296D01*
X24220Y-20305D01*
X24249Y-20305D01*
X24287Y-20296D01*
X24306Y-20286D01*
X24325Y-20267D01*
X24335Y-20239D01*
X24335Y-20220D01*
X24325Y-20191D01*
X24316Y-20182D01*
X24249Y-20182D01*
X24249Y-20220D01*
X24335Y-19982D02*
X24240Y-20048D01*
X24335Y-20096D02*
X24135Y-20096D01*
X24135Y-20020D01*
X24144Y-20001D01*
X24154Y-19991D01*
X24173Y-19982D01*
X24201Y-19982D01*
X24220Y-19991D01*
X24230Y-20001D01*
X24240Y-20020D01*
X24240Y-20096D01*
X24230Y-19896D02*
X24230Y-19829D01*
X24335Y-19801D02*
X24335Y-19896D01*
X24135Y-19896D01*
X24135Y-19801D01*
X24230Y-19715D02*
X24230Y-19648D01*
X24335Y-19620D02*
X24335Y-19715D01*
X24135Y-19715D01*
X24135Y-19620D01*
X24335Y-19534D02*
X24135Y-19534D01*
X24335Y-19420D01*
X24135Y-19420D01*
G54D21*
X23824Y-18954D02*
X23764Y-18859D01*
X23721Y-18954D02*
X23721Y-18754D01*
X23790Y-18754D01*
X23807Y-18764D01*
X23815Y-18774D01*
X23824Y-18793D01*
X23824Y-18821D01*
X23815Y-18840D01*
X23807Y-18850D01*
X23790Y-18859D01*
X23721Y-18859D01*
X23892Y-18774D02*
X23901Y-18764D01*
X23918Y-18754D01*
X23961Y-18754D01*
X23978Y-18764D01*
X23987Y-18774D01*
X23995Y-18793D01*
X23995Y-18812D01*
X23987Y-18840D01*
X23884Y-18954D01*
X23995Y-18954D01*
G54D18*
X24191Y-19048D02*
X24191Y-18812D01*
X24326Y-19048D02*
X24225Y-18913D01*
X24326Y-18812D02*
X24191Y-18947D01*
X24551Y-19048D02*
X24416Y-19048D01*
X24484Y-19048D02*
X24484Y-18812D01*
X24461Y-18845D01*
X24439Y-18868D01*
X24416Y-18879D01*
G54D10*
X23882Y-24406D02*
X23882Y-24170D01*
X23972Y-24170D01*
X23994Y-24181D01*
X24006Y-24192D01*
X24017Y-24215D01*
X24017Y-24249D01*
X24006Y-24271D01*
X23994Y-24282D01*
X23972Y-24294D01*
X23882Y-24294D01*
X24096Y-24170D02*
X24253Y-24170D01*
X24096Y-24406D01*
X24253Y-24406D01*
X24467Y-24406D02*
X24332Y-24406D01*
X24399Y-24406D02*
X24399Y-24170D01*
X24377Y-24204D01*
X24354Y-24226D01*
X24332Y-24237D01*
M02*
