M48
;DRILL file {Pcbnew (2013-07-24 BZR 4024)-stable} date Tue 25 Nov 2014 11:32:28 AM NZDT
;FORMAT={-:-/ absolute / metric / decimal}
FMAT,2
METRIC,TZ
T1C0.400
T2C0.635
T3C0.850
T4C1.000
T5C2.000
%
G90
G05
M71
T1
X60.69Y-60.34
X60.79Y-52.64
X61.49Y-63.57
X61.49Y-66.11
X64.59Y-59.64
X64.89Y-64.64
X67.79Y-59.84
X69.Y-65.7
X72.79Y-62.54
T2
X60.1Y-62.18
X60.1Y-76.35
X63.75Y-63.35
X66.79Y-66.65
X67.9Y-64.65
X68.39Y-56.34
X68.56Y-62.19
X68.67Y-53.39
X70.64Y-60.99
X71.3Y-61.87
X71.99Y-64.24
X72.14Y-46.21
X74.01Y-63.85
X74.04Y-76.46
T3
X62.95Y-46.24
X65.49Y-46.24
X68.03Y-46.24
T4
X65.39Y-70.74
X67.99Y-68.44
X67.99Y-73.34
X70.59Y-70.74
T5
X64.89Y-56.04
T0
M30
