G04 (created by PCBNEW (2013-07-24 BZR 4024)-stable) date Sat 29 Nov 2014 11:35:43 AM NZDT*
%MOIN*%
G04 Gerber Fmt 3.4, Leading zero omitted, Abs format*
%FSLAX34Y34*%
G01*
G70*
G90*
G04 APERTURE LIST*
%ADD10C,0.00590551*%
%ADD11R,0.0314961X0.0314961*%
%ADD12C,0.0314961*%
%ADD13R,0.0787402X0.0787402*%
%ADD14C,0.0787402*%
%ADD15R,0.05X0.1*%
%ADD16O,0.00984252X0.0275591*%
%ADD17O,0.0275591X0.00984252*%
%ADD18R,0.125984X0.125984*%
%ADD19R,0.0748X0.0669*%
%ADD20C,0.0669*%
%ADD21R,0.0315X0.025*%
%ADD22R,0.0314961X0.023622*%
%ADD23R,0.045X0.025*%
%ADD24R,0.025X0.045*%
%ADD25R,0.036X0.036*%
%ADD26R,0.0314X0.0314*%
%ADD27R,0.055X0.055*%
%ADD28C,0.055*%
%ADD29R,0.06X0.06*%
%ADD30C,0.06*%
%ADD31C,0.035*%
%ADD32C,0.0255906*%
%ADD33C,0.01*%
%ADD34C,0.019685*%
%ADD35C,0.00984252*%
G04 APERTURE END LIST*
G54D10*
G54D11*
X23740Y-21870D03*
G54D12*
X23740Y-21358D03*
X23740Y-20846D03*
G54D13*
X27791Y-27850D03*
G54D14*
X25744Y-27850D03*
X26767Y-28874D03*
X26767Y-26944D03*
G54D15*
X27781Y-18204D03*
X28981Y-18204D03*
G54D16*
X24858Y-21137D03*
G54D17*
X24622Y-21374D03*
X24622Y-21570D03*
X24622Y-21767D03*
X24622Y-21964D03*
X24622Y-22161D03*
X24622Y-22358D03*
X24622Y-22555D03*
X24622Y-22751D03*
G54D16*
X24858Y-22988D03*
X25055Y-22988D03*
X25251Y-22988D03*
X25448Y-22988D03*
X25645Y-22988D03*
X25842Y-22988D03*
X26039Y-22988D03*
X26236Y-22988D03*
G54D17*
X26472Y-22751D03*
X26472Y-22751D03*
X26472Y-22555D03*
X26472Y-22358D03*
X26472Y-22161D03*
X26472Y-21964D03*
X26472Y-21767D03*
X26472Y-21570D03*
X26472Y-21374D03*
G54D16*
X26236Y-21137D03*
X26039Y-21137D03*
X25842Y-21137D03*
X25645Y-21137D03*
X25448Y-21137D03*
X25251Y-21137D03*
X25055Y-21137D03*
X24858Y-21137D03*
G54D18*
X25547Y-22062D03*
G54D19*
X28803Y-23062D03*
G54D20*
X27803Y-23062D03*
X28803Y-22062D03*
X27803Y-22062D03*
X28803Y-21062D03*
X27803Y-21062D03*
G54D21*
X23838Y-23016D03*
G54D22*
X23838Y-22416D03*
G54D23*
X24838Y-24134D03*
X24838Y-23534D03*
G54D24*
X28495Y-24011D03*
X29095Y-24011D03*
G54D23*
X24799Y-19558D03*
X24799Y-20158D03*
X26570Y-19558D03*
X26570Y-20158D03*
X28303Y-19518D03*
X28303Y-20118D03*
G54D25*
X25580Y-24853D03*
X25580Y-24153D03*
X26380Y-24503D03*
G54D26*
X27358Y-20113D03*
X27358Y-19523D03*
X25625Y-20153D03*
X25625Y-19563D03*
X23854Y-20153D03*
X23854Y-19563D03*
G54D23*
X23854Y-18504D03*
X23854Y-17904D03*
G54D27*
X24783Y-18204D03*
G54D28*
X25783Y-18204D03*
X26783Y-18204D03*
G54D29*
X24208Y-26027D03*
G54D30*
X24208Y-25027D03*
G54D31*
X26925Y-22181D03*
X27811Y-24011D03*
G54D32*
X26688Y-23559D03*
X28657Y-24622D03*
G54D31*
X28342Y-25291D03*
G54D32*
X27165Y-25866D03*
X25547Y-25448D03*
X24330Y-20511D03*
G54D31*
X25098Y-24940D03*
X29137Y-25137D03*
X23661Y-24480D03*
X23661Y-30059D03*
X29149Y-30102D03*
X26992Y-24484D03*
X28070Y-24358D03*
X27035Y-21019D03*
X26732Y-25452D03*
X26295Y-26240D03*
X28401Y-18192D03*
G54D32*
X23893Y-23755D03*
X25429Y-23480D03*
G54D33*
X23838Y-23016D02*
X24089Y-23016D01*
X24251Y-22854D02*
X24251Y-22263D01*
X24089Y-23016D02*
X24251Y-22854D01*
X24346Y-21964D02*
X24251Y-22059D01*
X24251Y-22059D02*
X24251Y-22263D01*
X24562Y-21964D02*
X24346Y-21964D01*
X24346Y-22358D02*
X24562Y-22358D01*
X24251Y-22263D02*
X24346Y-22358D01*
X25271Y-23795D02*
X26019Y-23795D01*
X23838Y-23016D02*
X23834Y-23185D01*
X24484Y-23834D02*
X23834Y-23185D01*
X25232Y-23834D02*
X24484Y-23834D01*
X25232Y-23834D02*
X25271Y-23795D01*
X26236Y-24011D02*
X27811Y-24011D01*
X26019Y-23795D02*
X26236Y-24011D01*
G54D34*
X24208Y-26027D02*
X24208Y-26314D01*
X24208Y-26314D02*
X25744Y-27850D01*
X25783Y-18204D02*
X26452Y-18874D01*
X26452Y-18874D02*
X27112Y-18874D01*
X27112Y-18874D02*
X27781Y-18204D01*
G54D33*
X23839Y-23015D02*
X23838Y-23016D01*
X28495Y-24011D02*
X28165Y-24011D01*
X28165Y-24011D02*
X27811Y-24011D01*
X26531Y-22555D02*
X26708Y-22555D01*
X26708Y-22555D02*
X26925Y-22338D01*
X26925Y-22338D02*
X26925Y-22181D01*
G54D34*
X27803Y-24003D02*
X27803Y-23062D01*
X27811Y-24011D02*
X27803Y-24003D01*
G54D33*
X26236Y-21078D02*
X26826Y-20488D01*
X27933Y-20488D02*
X28303Y-20118D01*
X26826Y-20488D02*
X27933Y-20488D01*
X26039Y-21078D02*
X26039Y-20862D01*
X26570Y-20330D02*
X26570Y-20158D01*
X26039Y-20862D02*
X26570Y-20330D01*
X25665Y-20448D02*
X25409Y-20448D01*
X25842Y-20625D02*
X25665Y-20448D01*
X25842Y-21078D02*
X25842Y-20625D01*
X25118Y-20158D02*
X24799Y-20158D01*
X25409Y-20448D02*
X25118Y-20158D01*
X26236Y-23106D02*
X26688Y-23559D01*
X26236Y-23106D02*
X26236Y-23047D01*
G54D35*
X28803Y-23062D02*
X28803Y-24476D01*
X28803Y-24476D02*
X28657Y-24622D01*
G54D33*
X28657Y-24622D02*
X28645Y-24610D01*
X26039Y-23047D02*
X26039Y-23500D01*
X27200Y-22665D02*
X27803Y-22062D01*
X27200Y-23598D02*
X27200Y-22665D01*
X26964Y-23834D02*
X27200Y-23598D01*
X26374Y-23834D02*
X26964Y-23834D01*
X26039Y-23500D02*
X26374Y-23834D01*
X29095Y-24538D02*
X28342Y-25291D01*
X27165Y-25866D02*
X25992Y-25866D01*
X25992Y-25866D02*
X25547Y-25448D01*
X24330Y-20511D02*
X24330Y-20511D01*
X24330Y-20511D02*
X25196Y-20511D01*
X25196Y-20511D02*
X25427Y-20742D01*
X25448Y-21078D02*
X25427Y-20742D01*
X29095Y-24538D02*
X29095Y-24011D01*
X29095Y-24011D02*
X29095Y-23908D01*
X29095Y-23908D02*
X29346Y-23657D01*
X29346Y-23657D02*
X29346Y-21606D01*
X29346Y-21606D02*
X28803Y-21062D01*
X26531Y-22751D02*
X26787Y-22751D01*
X28291Y-21551D02*
X28803Y-22062D01*
X27535Y-21551D02*
X28291Y-21551D01*
X27279Y-21807D02*
X27535Y-21551D01*
X27279Y-22259D02*
X27279Y-21807D01*
X26787Y-22751D02*
X27279Y-22259D01*
X23854Y-17904D02*
X24026Y-17732D01*
X26783Y-17944D02*
X26783Y-18204D01*
X26570Y-17732D02*
X26783Y-17944D01*
X24026Y-17732D02*
X26570Y-17732D01*
X24562Y-21767D02*
X24137Y-21767D01*
X24035Y-21870D02*
X23740Y-21870D01*
X24137Y-21767D02*
X24035Y-21870D01*
X23838Y-22416D02*
X23838Y-21968D01*
X23838Y-21968D02*
X23740Y-21870D01*
X23720Y-21889D02*
X23740Y-21870D01*
X23842Y-21767D02*
X23740Y-21870D01*
X25098Y-24940D02*
X25575Y-24858D01*
X25580Y-24853D02*
X25575Y-24858D01*
X23704Y-30102D02*
X23661Y-30059D01*
X29149Y-30102D02*
X23704Y-30102D01*
X26992Y-24484D02*
X27944Y-24484D01*
X27944Y-24484D02*
X28070Y-24358D01*
X27803Y-21062D02*
X27078Y-21062D01*
X27078Y-21062D02*
X27035Y-21019D01*
G54D34*
X28981Y-18204D02*
X28413Y-18204D01*
X28413Y-18204D02*
X28401Y-18192D01*
G54D33*
X25625Y-19563D02*
X25665Y-19523D01*
X25665Y-19523D02*
X25665Y-19188D01*
X27358Y-19523D02*
X27358Y-19188D01*
G54D34*
X28981Y-18204D02*
X27997Y-19188D01*
X27997Y-19188D02*
X27358Y-19188D01*
X27358Y-19188D02*
X25665Y-19188D01*
X25665Y-19188D02*
X25251Y-19188D01*
G54D33*
X26688Y-21964D02*
X27590Y-21062D01*
X26531Y-21964D02*
X26688Y-21964D01*
X27590Y-21062D02*
X27803Y-21062D01*
G54D34*
X24783Y-18204D02*
X24783Y-18720D01*
X24783Y-18720D02*
X25251Y-19188D01*
X28377Y-20488D02*
X28696Y-20488D01*
X27803Y-21062D02*
X28377Y-20488D01*
X28981Y-20203D02*
X28981Y-18204D01*
X28696Y-20488D02*
X28981Y-20203D01*
G54D33*
X27358Y-19523D02*
X27495Y-19523D01*
X28775Y-18244D02*
X28824Y-18244D01*
X23854Y-19563D02*
X24228Y-19188D01*
X24228Y-19188D02*
X25251Y-19188D01*
X23847Y-22425D02*
X23838Y-22416D01*
G54D35*
X24562Y-22161D02*
X25448Y-22161D01*
X25448Y-22161D02*
X25547Y-22062D01*
G54D33*
X25547Y-22062D02*
X25448Y-22161D01*
X24562Y-21767D02*
X25251Y-21767D01*
X25251Y-21767D02*
X25547Y-22062D01*
X26531Y-21964D02*
X25645Y-21964D01*
X25645Y-21964D02*
X25547Y-22062D01*
X27803Y-21263D02*
X27803Y-21062D01*
X25448Y-23047D02*
X25448Y-23460D01*
X23460Y-18898D02*
X23854Y-18504D01*
X23460Y-23322D02*
X23460Y-18898D01*
X23893Y-23755D02*
X23460Y-23322D01*
X25448Y-23460D02*
X25429Y-23480D01*
G54D34*
X26767Y-26944D02*
X26767Y-28874D01*
X24535Y-25027D02*
X26452Y-26944D01*
X26452Y-26944D02*
X26767Y-26944D01*
X24208Y-25027D02*
X24535Y-25027D01*
X27791Y-27850D02*
X27791Y-25914D01*
G54D33*
X27791Y-25914D02*
X26380Y-24503D01*
X24606Y-20866D02*
X24114Y-21358D01*
X25055Y-20921D02*
X25000Y-20866D01*
X25000Y-20866D02*
X24606Y-20866D01*
X25055Y-21078D02*
X25055Y-20921D01*
X24114Y-21358D02*
X23740Y-21358D01*
X24527Y-20688D02*
X24370Y-20846D01*
X25251Y-21078D02*
X25251Y-20803D01*
X25137Y-20688D02*
X24527Y-20688D01*
X25251Y-20803D02*
X25137Y-20688D01*
X24370Y-20846D02*
X23740Y-20846D01*
X23799Y-20787D02*
X23740Y-20846D01*
X27358Y-20113D02*
X27456Y-20113D01*
X28051Y-19518D02*
X28303Y-19518D01*
X27456Y-20113D02*
X28051Y-19518D01*
X23854Y-20153D02*
X23953Y-20153D01*
X24548Y-19558D02*
X24799Y-19558D01*
X23953Y-20153D02*
X24548Y-19558D01*
X25625Y-20153D02*
X25724Y-20153D01*
X26319Y-19558D02*
X26570Y-19558D01*
X25724Y-20153D02*
X26319Y-19558D01*
X24838Y-23534D02*
X24838Y-23066D01*
X24838Y-23066D02*
X24858Y-23047D01*
X24858Y-23047D02*
X24853Y-23051D01*
X24838Y-24134D02*
X24857Y-24153D01*
X24857Y-24153D02*
X25580Y-24153D01*
G54D10*
G36*
X24051Y-22752D02*
X24026Y-22741D01*
X23966Y-22741D01*
X23660Y-22741D01*
X23660Y-22684D01*
X23710Y-22684D01*
X23751Y-22684D01*
X23788Y-22647D01*
X23788Y-22466D01*
X23780Y-22466D01*
X23780Y-22366D01*
X23788Y-22366D01*
X23788Y-22185D01*
X23775Y-22172D01*
X23808Y-22140D01*
X23808Y-21920D01*
X23800Y-21920D01*
X23800Y-21820D01*
X23808Y-21820D01*
X23808Y-21812D01*
X23908Y-21812D01*
X23908Y-21820D01*
X23916Y-21820D01*
X23916Y-21920D01*
X23908Y-21920D01*
X23908Y-22140D01*
X23921Y-22153D01*
X23888Y-22185D01*
X23888Y-22366D01*
X23896Y-22366D01*
X23896Y-22466D01*
X23888Y-22466D01*
X23888Y-22647D01*
X23926Y-22684D01*
X23966Y-22684D01*
X24026Y-22684D01*
X24051Y-22673D01*
X24051Y-22752D01*
X24051Y-22752D01*
G37*
G54D33*
X24051Y-22752D02*
X24026Y-22741D01*
X23966Y-22741D01*
X23660Y-22741D01*
X23660Y-22684D01*
X23710Y-22684D01*
X23751Y-22684D01*
X23788Y-22647D01*
X23788Y-22466D01*
X23780Y-22466D01*
X23780Y-22366D01*
X23788Y-22366D01*
X23788Y-22185D01*
X23775Y-22172D01*
X23808Y-22140D01*
X23808Y-21920D01*
X23800Y-21920D01*
X23800Y-21820D01*
X23808Y-21820D01*
X23808Y-21812D01*
X23908Y-21812D01*
X23908Y-21820D01*
X23916Y-21820D01*
X23916Y-21920D01*
X23908Y-21920D01*
X23908Y-22140D01*
X23921Y-22153D01*
X23888Y-22185D01*
X23888Y-22366D01*
X23896Y-22366D01*
X23896Y-22466D01*
X23888Y-22466D01*
X23888Y-22647D01*
X23926Y-22684D01*
X23966Y-22684D01*
X24026Y-22684D01*
X24051Y-22673D01*
X24051Y-22752D01*
G54D10*
G36*
X25605Y-22112D02*
X25597Y-22112D01*
X25597Y-22120D01*
X25497Y-22120D01*
X25497Y-22112D01*
X25489Y-22112D01*
X25489Y-22012D01*
X25497Y-22012D01*
X25497Y-22005D01*
X25597Y-22005D01*
X25597Y-22012D01*
X25605Y-22012D01*
X25605Y-22112D01*
X25605Y-22112D01*
G37*
G54D33*
X25605Y-22112D02*
X25597Y-22112D01*
X25597Y-22120D01*
X25497Y-22120D01*
X25497Y-22112D01*
X25489Y-22112D01*
X25489Y-22012D01*
X25497Y-22012D01*
X25497Y-22005D01*
X25597Y-22005D01*
X25597Y-22012D01*
X25605Y-22012D01*
X25605Y-22112D01*
G54D10*
G36*
X29393Y-21370D02*
X29381Y-21358D01*
X29381Y-18675D01*
X29381Y-18292D01*
X29344Y-18254D01*
X29031Y-18254D01*
X29031Y-18817D01*
X29069Y-18854D01*
X29261Y-18854D01*
X29316Y-18831D01*
X29358Y-18789D01*
X29381Y-18734D01*
X29381Y-18675D01*
X29381Y-21358D01*
X29256Y-21233D01*
X29287Y-21159D01*
X29287Y-20967D01*
X29214Y-20788D01*
X29077Y-20652D01*
X28931Y-20591D01*
X28931Y-18817D01*
X28931Y-18254D01*
X28619Y-18254D01*
X28581Y-18292D01*
X28581Y-18675D01*
X28581Y-18734D01*
X28604Y-18789D01*
X28647Y-18831D01*
X28702Y-18854D01*
X28894Y-18854D01*
X28931Y-18817D01*
X28931Y-20591D01*
X28899Y-20578D01*
X28707Y-20578D01*
X28529Y-20652D01*
X28392Y-20788D01*
X28318Y-20966D01*
X28318Y-21158D01*
X28392Y-21337D01*
X28528Y-21473D01*
X28706Y-21547D01*
X28899Y-21547D01*
X28973Y-21516D01*
X29146Y-21689D01*
X29146Y-21721D01*
X29077Y-21652D01*
X28899Y-21578D01*
X28707Y-21578D01*
X28632Y-21609D01*
X28432Y-21409D01*
X28367Y-21366D01*
X28292Y-21351D01*
X28291Y-21351D01*
X28162Y-21351D01*
X28159Y-21348D01*
X28230Y-21311D01*
X28292Y-21129D01*
X28280Y-20936D01*
X28230Y-20814D01*
X28159Y-20777D01*
X27873Y-21062D01*
X27879Y-21068D01*
X27808Y-21139D01*
X27803Y-21133D01*
X27797Y-21139D01*
X27732Y-21074D01*
X27726Y-21068D01*
X27732Y-21062D01*
X27446Y-20777D01*
X27376Y-20814D01*
X27313Y-20996D01*
X27325Y-21189D01*
X27376Y-21311D01*
X27446Y-21348D01*
X27419Y-21376D01*
X27429Y-21386D01*
X27394Y-21409D01*
X27138Y-21665D01*
X27094Y-21730D01*
X27079Y-21807D01*
X27079Y-21893D01*
X26990Y-21856D01*
X26860Y-21856D01*
X26751Y-21901D01*
X26750Y-21879D01*
X26738Y-21862D01*
X26750Y-21843D01*
X26765Y-21767D01*
X26750Y-21691D01*
X26735Y-21669D01*
X26750Y-21647D01*
X26765Y-21570D01*
X26750Y-21494D01*
X26735Y-21472D01*
X26750Y-21450D01*
X26765Y-21374D01*
X26750Y-21297D01*
X26707Y-21233D01*
X26642Y-21189D01*
X26566Y-21174D01*
X26435Y-21174D01*
X26435Y-21162D01*
X26909Y-20688D01*
X27527Y-20688D01*
X27517Y-20706D01*
X27803Y-20992D01*
X28088Y-20706D01*
X28055Y-20643D01*
X28075Y-20629D01*
X28310Y-20393D01*
X28557Y-20393D01*
X28613Y-20371D01*
X28655Y-20328D01*
X28678Y-20273D01*
X28678Y-20214D01*
X28678Y-19964D01*
X28655Y-19909D01*
X28613Y-19866D01*
X28558Y-19843D01*
X28498Y-19843D01*
X28048Y-19843D01*
X27993Y-19866D01*
X27951Y-19908D01*
X27928Y-19963D01*
X27928Y-20023D01*
X27928Y-20211D01*
X27851Y-20288D01*
X27665Y-20288D01*
X27665Y-20241D01*
X27665Y-20188D01*
X28059Y-19793D01*
X28107Y-19793D01*
X28557Y-19793D01*
X28613Y-19771D01*
X28655Y-19728D01*
X28678Y-19673D01*
X28678Y-19614D01*
X28678Y-19364D01*
X28655Y-19309D01*
X28613Y-19266D01*
X28558Y-19243D01*
X28498Y-19243D01*
X28048Y-19243D01*
X27993Y-19266D01*
X27951Y-19308D01*
X27928Y-19363D01*
X27928Y-19365D01*
X27910Y-19377D01*
X27665Y-19622D01*
X27665Y-19337D01*
X27642Y-19282D01*
X27600Y-19239D01*
X27545Y-19216D01*
X27485Y-19216D01*
X27445Y-19216D01*
X27408Y-19254D01*
X27408Y-19473D01*
X27627Y-19473D01*
X27665Y-19436D01*
X27665Y-19337D01*
X27665Y-19622D01*
X27665Y-19622D01*
X27665Y-19611D01*
X27627Y-19573D01*
X27408Y-19573D01*
X27408Y-19581D01*
X27308Y-19581D01*
X27308Y-19573D01*
X27308Y-19473D01*
X27308Y-19254D01*
X27270Y-19216D01*
X27230Y-19216D01*
X27171Y-19216D01*
X27116Y-19239D01*
X27074Y-19282D01*
X27051Y-19337D01*
X27051Y-19436D01*
X27088Y-19473D01*
X27308Y-19473D01*
X27308Y-19573D01*
X27088Y-19573D01*
X27051Y-19611D01*
X27051Y-19710D01*
X27074Y-19765D01*
X27116Y-19807D01*
X27142Y-19818D01*
X27116Y-19829D01*
X27074Y-19871D01*
X27051Y-19926D01*
X27051Y-19986D01*
X27051Y-20288D01*
X26945Y-20288D01*
X26945Y-20253D01*
X26945Y-20003D01*
X26923Y-19948D01*
X26880Y-19906D01*
X26825Y-19883D01*
X26766Y-19883D01*
X26316Y-19883D01*
X26261Y-19906D01*
X26218Y-19948D01*
X26195Y-20003D01*
X26195Y-20062D01*
X26195Y-20312D01*
X26218Y-20368D01*
X26234Y-20384D01*
X26034Y-20584D01*
X26027Y-20549D01*
X26027Y-20549D01*
X25983Y-20484D01*
X25902Y-20403D01*
X25910Y-20395D01*
X25932Y-20340D01*
X25933Y-20280D01*
X25933Y-20227D01*
X26327Y-19833D01*
X26375Y-19833D01*
X26825Y-19833D01*
X26880Y-19810D01*
X26922Y-19768D01*
X26945Y-19713D01*
X26945Y-19653D01*
X26945Y-19403D01*
X26923Y-19348D01*
X26880Y-19306D01*
X26825Y-19283D01*
X26766Y-19283D01*
X26316Y-19283D01*
X26261Y-19306D01*
X26218Y-19348D01*
X26195Y-19403D01*
X26195Y-19405D01*
X26178Y-19416D01*
X25933Y-19662D01*
X25933Y-19376D01*
X25910Y-19321D01*
X25868Y-19279D01*
X25812Y-19256D01*
X25753Y-19256D01*
X25713Y-19256D01*
X25675Y-19293D01*
X25675Y-19513D01*
X25895Y-19513D01*
X25932Y-19475D01*
X25933Y-19376D01*
X25933Y-19662D01*
X25932Y-19662D01*
X25932Y-19650D01*
X25895Y-19613D01*
X25675Y-19613D01*
X25675Y-19621D01*
X25575Y-19621D01*
X25575Y-19613D01*
X25575Y-19513D01*
X25575Y-19293D01*
X25538Y-19256D01*
X25498Y-19256D01*
X25439Y-19256D01*
X25383Y-19279D01*
X25341Y-19321D01*
X25318Y-19376D01*
X25318Y-19475D01*
X25356Y-19513D01*
X25575Y-19513D01*
X25575Y-19613D01*
X25356Y-19613D01*
X25318Y-19650D01*
X25318Y-19749D01*
X25341Y-19805D01*
X25383Y-19847D01*
X25410Y-19858D01*
X25384Y-19869D01*
X25341Y-19911D01*
X25319Y-19966D01*
X25318Y-20025D01*
X25318Y-20075D01*
X25260Y-20016D01*
X25208Y-19982D01*
X25208Y-18450D01*
X25208Y-18292D01*
X25170Y-18254D01*
X24833Y-18254D01*
X24833Y-18592D01*
X24870Y-18629D01*
X25088Y-18629D01*
X25143Y-18606D01*
X25185Y-18564D01*
X25208Y-18509D01*
X25208Y-18450D01*
X25208Y-19982D01*
X25195Y-19973D01*
X25158Y-19966D01*
X25151Y-19948D01*
X25109Y-19906D01*
X25054Y-19883D01*
X24994Y-19883D01*
X24544Y-19883D01*
X24489Y-19906D01*
X24447Y-19948D01*
X24424Y-20003D01*
X24424Y-20062D01*
X24424Y-20249D01*
X24386Y-20233D01*
X24275Y-20233D01*
X24173Y-20276D01*
X24161Y-20288D01*
X24161Y-20280D01*
X24161Y-20227D01*
X24555Y-19833D01*
X24603Y-19833D01*
X25053Y-19833D01*
X25109Y-19810D01*
X25151Y-19768D01*
X25174Y-19713D01*
X25174Y-19653D01*
X25174Y-19403D01*
X25151Y-19348D01*
X25109Y-19306D01*
X25054Y-19283D01*
X24994Y-19283D01*
X24733Y-19283D01*
X24733Y-18592D01*
X24733Y-18254D01*
X24395Y-18254D01*
X24358Y-18292D01*
X24358Y-18450D01*
X24358Y-18509D01*
X24381Y-18564D01*
X24423Y-18606D01*
X24478Y-18629D01*
X24695Y-18629D01*
X24733Y-18592D01*
X24733Y-19283D01*
X24544Y-19283D01*
X24489Y-19306D01*
X24447Y-19348D01*
X24424Y-19403D01*
X24424Y-19405D01*
X24406Y-19416D01*
X24161Y-19662D01*
X24161Y-19376D01*
X24138Y-19321D01*
X24096Y-19279D01*
X24041Y-19256D01*
X23981Y-19256D01*
X23941Y-19256D01*
X23904Y-19293D01*
X23904Y-19513D01*
X24123Y-19513D01*
X24161Y-19475D01*
X24161Y-19376D01*
X24161Y-19662D01*
X24161Y-19662D01*
X24161Y-19650D01*
X24123Y-19613D01*
X23904Y-19613D01*
X23904Y-19621D01*
X23804Y-19621D01*
X23804Y-19613D01*
X23796Y-19613D01*
X23796Y-19513D01*
X23804Y-19513D01*
X23804Y-19293D01*
X23766Y-19256D01*
X23727Y-19256D01*
X23667Y-19256D01*
X23660Y-19259D01*
X23660Y-18981D01*
X23862Y-18779D01*
X24109Y-18779D01*
X24164Y-18756D01*
X24206Y-18714D01*
X24229Y-18659D01*
X24229Y-18600D01*
X24229Y-18350D01*
X24206Y-18294D01*
X24164Y-18252D01*
X24109Y-18229D01*
X24049Y-18229D01*
X23599Y-18229D01*
X23544Y-18252D01*
X23502Y-18294D01*
X23479Y-18349D01*
X23479Y-18409D01*
X23479Y-18596D01*
X23433Y-18642D01*
X23433Y-17665D01*
X23531Y-17665D01*
X23502Y-17694D01*
X23479Y-17749D01*
X23479Y-17809D01*
X23479Y-18059D01*
X23502Y-18114D01*
X23544Y-18156D01*
X23599Y-18179D01*
X23659Y-18179D01*
X24109Y-18179D01*
X24164Y-18156D01*
X24206Y-18114D01*
X24229Y-18059D01*
X24229Y-18000D01*
X24229Y-17932D01*
X24358Y-17932D01*
X24358Y-17959D01*
X24358Y-18117D01*
X24395Y-18154D01*
X24733Y-18154D01*
X24733Y-18146D01*
X24833Y-18146D01*
X24833Y-18154D01*
X25170Y-18154D01*
X25208Y-18117D01*
X25208Y-17959D01*
X25208Y-17932D01*
X25454Y-17932D01*
X25423Y-17963D01*
X25358Y-18119D01*
X25358Y-18288D01*
X25422Y-18445D01*
X25542Y-18564D01*
X25698Y-18629D01*
X25857Y-18629D01*
X26277Y-19049D01*
X26357Y-19103D01*
X26452Y-19122D01*
X27112Y-19122D01*
X27112Y-19122D01*
X27207Y-19103D01*
X27288Y-19049D01*
X27488Y-18849D01*
X27501Y-18854D01*
X27561Y-18854D01*
X28061Y-18854D01*
X28116Y-18831D01*
X28158Y-18789D01*
X28181Y-18734D01*
X28181Y-18675D01*
X28181Y-17675D01*
X28178Y-17665D01*
X28585Y-17665D01*
X28581Y-17674D01*
X28581Y-17734D01*
X28581Y-18117D01*
X28619Y-18154D01*
X28931Y-18154D01*
X28931Y-18146D01*
X29031Y-18146D01*
X29031Y-18154D01*
X29344Y-18154D01*
X29381Y-18117D01*
X29381Y-17734D01*
X29381Y-17674D01*
X29378Y-17665D01*
X29393Y-17665D01*
X29393Y-21370D01*
X29393Y-21370D01*
G37*
G54D33*
X29393Y-21370D02*
X29381Y-21358D01*
X29381Y-18675D01*
X29381Y-18292D01*
X29344Y-18254D01*
X29031Y-18254D01*
X29031Y-18817D01*
X29069Y-18854D01*
X29261Y-18854D01*
X29316Y-18831D01*
X29358Y-18789D01*
X29381Y-18734D01*
X29381Y-18675D01*
X29381Y-21358D01*
X29256Y-21233D01*
X29287Y-21159D01*
X29287Y-20967D01*
X29214Y-20788D01*
X29077Y-20652D01*
X28931Y-20591D01*
X28931Y-18817D01*
X28931Y-18254D01*
X28619Y-18254D01*
X28581Y-18292D01*
X28581Y-18675D01*
X28581Y-18734D01*
X28604Y-18789D01*
X28647Y-18831D01*
X28702Y-18854D01*
X28894Y-18854D01*
X28931Y-18817D01*
X28931Y-20591D01*
X28899Y-20578D01*
X28707Y-20578D01*
X28529Y-20652D01*
X28392Y-20788D01*
X28318Y-20966D01*
X28318Y-21158D01*
X28392Y-21337D01*
X28528Y-21473D01*
X28706Y-21547D01*
X28899Y-21547D01*
X28973Y-21516D01*
X29146Y-21689D01*
X29146Y-21721D01*
X29077Y-21652D01*
X28899Y-21578D01*
X28707Y-21578D01*
X28632Y-21609D01*
X28432Y-21409D01*
X28367Y-21366D01*
X28292Y-21351D01*
X28291Y-21351D01*
X28162Y-21351D01*
X28159Y-21348D01*
X28230Y-21311D01*
X28292Y-21129D01*
X28280Y-20936D01*
X28230Y-20814D01*
X28159Y-20777D01*
X27873Y-21062D01*
X27879Y-21068D01*
X27808Y-21139D01*
X27803Y-21133D01*
X27797Y-21139D01*
X27732Y-21074D01*
X27726Y-21068D01*
X27732Y-21062D01*
X27446Y-20777D01*
X27376Y-20814D01*
X27313Y-20996D01*
X27325Y-21189D01*
X27376Y-21311D01*
X27446Y-21348D01*
X27419Y-21376D01*
X27429Y-21386D01*
X27394Y-21409D01*
X27138Y-21665D01*
X27094Y-21730D01*
X27079Y-21807D01*
X27079Y-21893D01*
X26990Y-21856D01*
X26860Y-21856D01*
X26751Y-21901D01*
X26750Y-21879D01*
X26738Y-21862D01*
X26750Y-21843D01*
X26765Y-21767D01*
X26750Y-21691D01*
X26735Y-21669D01*
X26750Y-21647D01*
X26765Y-21570D01*
X26750Y-21494D01*
X26735Y-21472D01*
X26750Y-21450D01*
X26765Y-21374D01*
X26750Y-21297D01*
X26707Y-21233D01*
X26642Y-21189D01*
X26566Y-21174D01*
X26435Y-21174D01*
X26435Y-21162D01*
X26909Y-20688D01*
X27527Y-20688D01*
X27517Y-20706D01*
X27803Y-20992D01*
X28088Y-20706D01*
X28055Y-20643D01*
X28075Y-20629D01*
X28310Y-20393D01*
X28557Y-20393D01*
X28613Y-20371D01*
X28655Y-20328D01*
X28678Y-20273D01*
X28678Y-20214D01*
X28678Y-19964D01*
X28655Y-19909D01*
X28613Y-19866D01*
X28558Y-19843D01*
X28498Y-19843D01*
X28048Y-19843D01*
X27993Y-19866D01*
X27951Y-19908D01*
X27928Y-19963D01*
X27928Y-20023D01*
X27928Y-20211D01*
X27851Y-20288D01*
X27665Y-20288D01*
X27665Y-20241D01*
X27665Y-20188D01*
X28059Y-19793D01*
X28107Y-19793D01*
X28557Y-19793D01*
X28613Y-19771D01*
X28655Y-19728D01*
X28678Y-19673D01*
X28678Y-19614D01*
X28678Y-19364D01*
X28655Y-19309D01*
X28613Y-19266D01*
X28558Y-19243D01*
X28498Y-19243D01*
X28048Y-19243D01*
X27993Y-19266D01*
X27951Y-19308D01*
X27928Y-19363D01*
X27928Y-19365D01*
X27910Y-19377D01*
X27665Y-19622D01*
X27665Y-19337D01*
X27642Y-19282D01*
X27600Y-19239D01*
X27545Y-19216D01*
X27485Y-19216D01*
X27445Y-19216D01*
X27408Y-19254D01*
X27408Y-19473D01*
X27627Y-19473D01*
X27665Y-19436D01*
X27665Y-19337D01*
X27665Y-19622D01*
X27665Y-19622D01*
X27665Y-19611D01*
X27627Y-19573D01*
X27408Y-19573D01*
X27408Y-19581D01*
X27308Y-19581D01*
X27308Y-19573D01*
X27308Y-19473D01*
X27308Y-19254D01*
X27270Y-19216D01*
X27230Y-19216D01*
X27171Y-19216D01*
X27116Y-19239D01*
X27074Y-19282D01*
X27051Y-19337D01*
X27051Y-19436D01*
X27088Y-19473D01*
X27308Y-19473D01*
X27308Y-19573D01*
X27088Y-19573D01*
X27051Y-19611D01*
X27051Y-19710D01*
X27074Y-19765D01*
X27116Y-19807D01*
X27142Y-19818D01*
X27116Y-19829D01*
X27074Y-19871D01*
X27051Y-19926D01*
X27051Y-19986D01*
X27051Y-20288D01*
X26945Y-20288D01*
X26945Y-20253D01*
X26945Y-20003D01*
X26923Y-19948D01*
X26880Y-19906D01*
X26825Y-19883D01*
X26766Y-19883D01*
X26316Y-19883D01*
X26261Y-19906D01*
X26218Y-19948D01*
X26195Y-20003D01*
X26195Y-20062D01*
X26195Y-20312D01*
X26218Y-20368D01*
X26234Y-20384D01*
X26034Y-20584D01*
X26027Y-20549D01*
X26027Y-20549D01*
X25983Y-20484D01*
X25902Y-20403D01*
X25910Y-20395D01*
X25932Y-20340D01*
X25933Y-20280D01*
X25933Y-20227D01*
X26327Y-19833D01*
X26375Y-19833D01*
X26825Y-19833D01*
X26880Y-19810D01*
X26922Y-19768D01*
X26945Y-19713D01*
X26945Y-19653D01*
X26945Y-19403D01*
X26923Y-19348D01*
X26880Y-19306D01*
X26825Y-19283D01*
X26766Y-19283D01*
X26316Y-19283D01*
X26261Y-19306D01*
X26218Y-19348D01*
X26195Y-19403D01*
X26195Y-19405D01*
X26178Y-19416D01*
X25933Y-19662D01*
X25933Y-19376D01*
X25910Y-19321D01*
X25868Y-19279D01*
X25812Y-19256D01*
X25753Y-19256D01*
X25713Y-19256D01*
X25675Y-19293D01*
X25675Y-19513D01*
X25895Y-19513D01*
X25932Y-19475D01*
X25933Y-19376D01*
X25933Y-19662D01*
X25932Y-19662D01*
X25932Y-19650D01*
X25895Y-19613D01*
X25675Y-19613D01*
X25675Y-19621D01*
X25575Y-19621D01*
X25575Y-19613D01*
X25575Y-19513D01*
X25575Y-19293D01*
X25538Y-19256D01*
X25498Y-19256D01*
X25439Y-19256D01*
X25383Y-19279D01*
X25341Y-19321D01*
X25318Y-19376D01*
X25318Y-19475D01*
X25356Y-19513D01*
X25575Y-19513D01*
X25575Y-19613D01*
X25356Y-19613D01*
X25318Y-19650D01*
X25318Y-19749D01*
X25341Y-19805D01*
X25383Y-19847D01*
X25410Y-19858D01*
X25384Y-19869D01*
X25341Y-19911D01*
X25319Y-19966D01*
X25318Y-20025D01*
X25318Y-20075D01*
X25260Y-20016D01*
X25208Y-19982D01*
X25208Y-18450D01*
X25208Y-18292D01*
X25170Y-18254D01*
X24833Y-18254D01*
X24833Y-18592D01*
X24870Y-18629D01*
X25088Y-18629D01*
X25143Y-18606D01*
X25185Y-18564D01*
X25208Y-18509D01*
X25208Y-18450D01*
X25208Y-19982D01*
X25195Y-19973D01*
X25158Y-19966D01*
X25151Y-19948D01*
X25109Y-19906D01*
X25054Y-19883D01*
X24994Y-19883D01*
X24544Y-19883D01*
X24489Y-19906D01*
X24447Y-19948D01*
X24424Y-20003D01*
X24424Y-20062D01*
X24424Y-20249D01*
X24386Y-20233D01*
X24275Y-20233D01*
X24173Y-20276D01*
X24161Y-20288D01*
X24161Y-20280D01*
X24161Y-20227D01*
X24555Y-19833D01*
X24603Y-19833D01*
X25053Y-19833D01*
X25109Y-19810D01*
X25151Y-19768D01*
X25174Y-19713D01*
X25174Y-19653D01*
X25174Y-19403D01*
X25151Y-19348D01*
X25109Y-19306D01*
X25054Y-19283D01*
X24994Y-19283D01*
X24733Y-19283D01*
X24733Y-18592D01*
X24733Y-18254D01*
X24395Y-18254D01*
X24358Y-18292D01*
X24358Y-18450D01*
X24358Y-18509D01*
X24381Y-18564D01*
X24423Y-18606D01*
X24478Y-18629D01*
X24695Y-18629D01*
X24733Y-18592D01*
X24733Y-19283D01*
X24544Y-19283D01*
X24489Y-19306D01*
X24447Y-19348D01*
X24424Y-19403D01*
X24424Y-19405D01*
X24406Y-19416D01*
X24161Y-19662D01*
X24161Y-19376D01*
X24138Y-19321D01*
X24096Y-19279D01*
X24041Y-19256D01*
X23981Y-19256D01*
X23941Y-19256D01*
X23904Y-19293D01*
X23904Y-19513D01*
X24123Y-19513D01*
X24161Y-19475D01*
X24161Y-19376D01*
X24161Y-19662D01*
X24161Y-19662D01*
X24161Y-19650D01*
X24123Y-19613D01*
X23904Y-19613D01*
X23904Y-19621D01*
X23804Y-19621D01*
X23804Y-19613D01*
X23796Y-19613D01*
X23796Y-19513D01*
X23804Y-19513D01*
X23804Y-19293D01*
X23766Y-19256D01*
X23727Y-19256D01*
X23667Y-19256D01*
X23660Y-19259D01*
X23660Y-18981D01*
X23862Y-18779D01*
X24109Y-18779D01*
X24164Y-18756D01*
X24206Y-18714D01*
X24229Y-18659D01*
X24229Y-18600D01*
X24229Y-18350D01*
X24206Y-18294D01*
X24164Y-18252D01*
X24109Y-18229D01*
X24049Y-18229D01*
X23599Y-18229D01*
X23544Y-18252D01*
X23502Y-18294D01*
X23479Y-18349D01*
X23479Y-18409D01*
X23479Y-18596D01*
X23433Y-18642D01*
X23433Y-17665D01*
X23531Y-17665D01*
X23502Y-17694D01*
X23479Y-17749D01*
X23479Y-17809D01*
X23479Y-18059D01*
X23502Y-18114D01*
X23544Y-18156D01*
X23599Y-18179D01*
X23659Y-18179D01*
X24109Y-18179D01*
X24164Y-18156D01*
X24206Y-18114D01*
X24229Y-18059D01*
X24229Y-18000D01*
X24229Y-17932D01*
X24358Y-17932D01*
X24358Y-17959D01*
X24358Y-18117D01*
X24395Y-18154D01*
X24733Y-18154D01*
X24733Y-18146D01*
X24833Y-18146D01*
X24833Y-18154D01*
X25170Y-18154D01*
X25208Y-18117D01*
X25208Y-17959D01*
X25208Y-17932D01*
X25454Y-17932D01*
X25423Y-17963D01*
X25358Y-18119D01*
X25358Y-18288D01*
X25422Y-18445D01*
X25542Y-18564D01*
X25698Y-18629D01*
X25857Y-18629D01*
X26277Y-19049D01*
X26357Y-19103D01*
X26452Y-19122D01*
X27112Y-19122D01*
X27112Y-19122D01*
X27207Y-19103D01*
X27288Y-19049D01*
X27488Y-18849D01*
X27501Y-18854D01*
X27561Y-18854D01*
X28061Y-18854D01*
X28116Y-18831D01*
X28158Y-18789D01*
X28181Y-18734D01*
X28181Y-18675D01*
X28181Y-17675D01*
X28178Y-17665D01*
X28585Y-17665D01*
X28581Y-17674D01*
X28581Y-17734D01*
X28581Y-18117D01*
X28619Y-18154D01*
X28931Y-18154D01*
X28931Y-18146D01*
X29031Y-18146D01*
X29031Y-18154D01*
X29344Y-18154D01*
X29381Y-18117D01*
X29381Y-17734D01*
X29381Y-17674D01*
X29378Y-17665D01*
X29393Y-17665D01*
X29393Y-21370D01*
G54D10*
G36*
X29393Y-30357D02*
X23433Y-30357D01*
X23433Y-23578D01*
X23615Y-23760D01*
X23615Y-23810D01*
X23657Y-23913D01*
X23736Y-23991D01*
X23838Y-24033D01*
X23948Y-24033D01*
X24050Y-23991D01*
X24129Y-23913D01*
X24171Y-23811D01*
X24171Y-23804D01*
X24342Y-23976D01*
X24342Y-23976D01*
X24407Y-24019D01*
X24407Y-24019D01*
X24420Y-24021D01*
X24463Y-24030D01*
X24463Y-24039D01*
X24463Y-24289D01*
X24486Y-24344D01*
X24528Y-24386D01*
X24583Y-24409D01*
X24643Y-24409D01*
X25093Y-24409D01*
X25148Y-24386D01*
X25181Y-24353D01*
X25250Y-24353D01*
X25250Y-24363D01*
X25273Y-24418D01*
X25315Y-24461D01*
X25370Y-24483D01*
X25430Y-24483D01*
X25790Y-24483D01*
X25845Y-24461D01*
X25887Y-24419D01*
X25910Y-24363D01*
X25910Y-24304D01*
X25910Y-23995D01*
X25936Y-23995D01*
X26094Y-24153D01*
X26094Y-24153D01*
X26138Y-24182D01*
X26142Y-24185D01*
X26115Y-24196D01*
X26073Y-24238D01*
X26050Y-24293D01*
X26050Y-24353D01*
X26050Y-24713D01*
X26073Y-24768D01*
X26115Y-24811D01*
X26170Y-24833D01*
X26230Y-24833D01*
X26427Y-24833D01*
X27181Y-25588D01*
X27110Y-25588D01*
X27008Y-25630D01*
X26972Y-25666D01*
X26070Y-25666D01*
X25910Y-25515D01*
X25825Y-25435D01*
X25825Y-25393D01*
X25783Y-25291D01*
X25704Y-25213D01*
X25630Y-25182D01*
X25630Y-25146D01*
X25667Y-25183D01*
X25730Y-25183D01*
X25790Y-25183D01*
X25845Y-25161D01*
X25887Y-25118D01*
X25910Y-25063D01*
X25910Y-24644D01*
X25887Y-24589D01*
X25845Y-24546D01*
X25790Y-24523D01*
X25730Y-24523D01*
X25667Y-24523D01*
X25630Y-24561D01*
X25630Y-24803D01*
X25872Y-24803D01*
X25910Y-24766D01*
X25910Y-24644D01*
X25910Y-25063D01*
X25910Y-24941D01*
X25872Y-24903D01*
X25630Y-24903D01*
X25630Y-24911D01*
X25530Y-24911D01*
X25530Y-24903D01*
X25530Y-24803D01*
X25530Y-24561D01*
X25492Y-24523D01*
X25430Y-24523D01*
X25370Y-24523D01*
X25315Y-24546D01*
X25273Y-24589D01*
X25250Y-24644D01*
X25250Y-24766D01*
X25287Y-24803D01*
X25530Y-24803D01*
X25530Y-24903D01*
X25287Y-24903D01*
X25250Y-24941D01*
X25250Y-25063D01*
X25273Y-25118D01*
X25315Y-25161D01*
X25370Y-25183D01*
X25430Y-25183D01*
X25460Y-25183D01*
X25390Y-25213D01*
X25311Y-25291D01*
X25269Y-25393D01*
X25269Y-25410D01*
X24711Y-24851D01*
X24630Y-24798D01*
X24598Y-24791D01*
X24590Y-24772D01*
X24463Y-24646D01*
X24298Y-24577D01*
X24119Y-24577D01*
X23954Y-24645D01*
X23827Y-24772D01*
X23758Y-24937D01*
X23758Y-25116D01*
X23826Y-25282D01*
X23953Y-25408D01*
X24118Y-25477D01*
X24297Y-25477D01*
X24463Y-25409D01*
X24514Y-25358D01*
X26234Y-27077D01*
X26306Y-27252D01*
X26459Y-27405D01*
X26519Y-27430D01*
X26519Y-28388D01*
X26460Y-28412D01*
X26307Y-28565D01*
X26287Y-28611D01*
X26287Y-27742D01*
X26205Y-27542D01*
X26052Y-27389D01*
X25852Y-27306D01*
X25636Y-27306D01*
X25576Y-27331D01*
X24642Y-26397D01*
X24658Y-26357D01*
X24658Y-26297D01*
X24658Y-25697D01*
X24635Y-25642D01*
X24593Y-25600D01*
X24538Y-25577D01*
X24478Y-25577D01*
X23878Y-25577D01*
X23823Y-25600D01*
X23781Y-25642D01*
X23758Y-25697D01*
X23758Y-25757D01*
X23758Y-26357D01*
X23781Y-26412D01*
X23823Y-26454D01*
X23878Y-26477D01*
X23938Y-26477D01*
X24024Y-26477D01*
X24032Y-26490D01*
X25225Y-27682D01*
X25200Y-27741D01*
X25200Y-27958D01*
X25282Y-28157D01*
X25435Y-28311D01*
X25635Y-28393D01*
X25851Y-28394D01*
X26051Y-28311D01*
X26204Y-28158D01*
X26287Y-27959D01*
X26287Y-27742D01*
X26287Y-28611D01*
X26224Y-28765D01*
X26223Y-28981D01*
X26306Y-29181D01*
X26459Y-29334D01*
X26659Y-29417D01*
X26875Y-29417D01*
X27075Y-29335D01*
X27228Y-29182D01*
X27311Y-28982D01*
X27311Y-28766D01*
X27228Y-28566D01*
X27076Y-28413D01*
X27016Y-28388D01*
X27016Y-27430D01*
X27075Y-27406D01*
X27228Y-27253D01*
X27311Y-27053D01*
X27311Y-26837D01*
X27228Y-26637D01*
X27076Y-26484D01*
X26876Y-26401D01*
X26660Y-26401D01*
X26460Y-26483D01*
X26401Y-26542D01*
X25899Y-26039D01*
X25915Y-26050D01*
X25917Y-26051D01*
X25921Y-26053D01*
X25965Y-26060D01*
X25992Y-26066D01*
X25997Y-26066D01*
X25998Y-26066D01*
X25998Y-26066D01*
X26972Y-26066D01*
X27007Y-26101D01*
X27109Y-26144D01*
X27220Y-26144D01*
X27322Y-26101D01*
X27400Y-26023D01*
X27443Y-25921D01*
X27443Y-25849D01*
X27542Y-25949D01*
X27542Y-27306D01*
X27367Y-27306D01*
X27312Y-27329D01*
X27270Y-27371D01*
X27247Y-27426D01*
X27247Y-27486D01*
X27247Y-28273D01*
X27270Y-28328D01*
X27312Y-28371D01*
X27367Y-28394D01*
X27427Y-28394D01*
X28214Y-28394D01*
X28269Y-28371D01*
X28312Y-28329D01*
X28335Y-28274D01*
X28335Y-28214D01*
X28335Y-27426D01*
X28312Y-27371D01*
X28270Y-27329D01*
X28215Y-27306D01*
X28155Y-27306D01*
X28039Y-27306D01*
X28039Y-25914D01*
X28020Y-25819D01*
X27967Y-25739D01*
X27886Y-25685D01*
X27834Y-25675D01*
X26710Y-24551D01*
X26710Y-24294D01*
X26687Y-24239D01*
X26660Y-24211D01*
X27551Y-24211D01*
X27626Y-24287D01*
X27746Y-24336D01*
X27875Y-24336D01*
X27994Y-24287D01*
X28070Y-24211D01*
X28165Y-24211D01*
X28220Y-24211D01*
X28220Y-24266D01*
X28243Y-24321D01*
X28285Y-24363D01*
X28340Y-24386D01*
X28399Y-24386D01*
X28499Y-24386D01*
X28421Y-24464D01*
X28379Y-24566D01*
X28379Y-24677D01*
X28421Y-24779D01*
X28496Y-24854D01*
X28384Y-24966D01*
X28278Y-24966D01*
X28158Y-25015D01*
X28067Y-25107D01*
X28017Y-25226D01*
X28017Y-25355D01*
X28066Y-25475D01*
X28158Y-25566D01*
X28277Y-25616D01*
X28406Y-25616D01*
X28526Y-25567D01*
X28617Y-25475D01*
X28667Y-25356D01*
X28667Y-25249D01*
X29236Y-24680D01*
X29280Y-24615D01*
X29280Y-24615D01*
X29282Y-24602D01*
X29295Y-24538D01*
X29295Y-24538D01*
X29295Y-24368D01*
X29305Y-24364D01*
X29347Y-24321D01*
X29370Y-24266D01*
X29370Y-24207D01*
X29370Y-23916D01*
X29393Y-23893D01*
X29393Y-30357D01*
X29393Y-30357D01*
G37*
G54D33*
X29393Y-30357D02*
X23433Y-30357D01*
X23433Y-23578D01*
X23615Y-23760D01*
X23615Y-23810D01*
X23657Y-23913D01*
X23736Y-23991D01*
X23838Y-24033D01*
X23948Y-24033D01*
X24050Y-23991D01*
X24129Y-23913D01*
X24171Y-23811D01*
X24171Y-23804D01*
X24342Y-23976D01*
X24342Y-23976D01*
X24407Y-24019D01*
X24407Y-24019D01*
X24420Y-24021D01*
X24463Y-24030D01*
X24463Y-24039D01*
X24463Y-24289D01*
X24486Y-24344D01*
X24528Y-24386D01*
X24583Y-24409D01*
X24643Y-24409D01*
X25093Y-24409D01*
X25148Y-24386D01*
X25181Y-24353D01*
X25250Y-24353D01*
X25250Y-24363D01*
X25273Y-24418D01*
X25315Y-24461D01*
X25370Y-24483D01*
X25430Y-24483D01*
X25790Y-24483D01*
X25845Y-24461D01*
X25887Y-24419D01*
X25910Y-24363D01*
X25910Y-24304D01*
X25910Y-23995D01*
X25936Y-23995D01*
X26094Y-24153D01*
X26094Y-24153D01*
X26138Y-24182D01*
X26142Y-24185D01*
X26115Y-24196D01*
X26073Y-24238D01*
X26050Y-24293D01*
X26050Y-24353D01*
X26050Y-24713D01*
X26073Y-24768D01*
X26115Y-24811D01*
X26170Y-24833D01*
X26230Y-24833D01*
X26427Y-24833D01*
X27181Y-25588D01*
X27110Y-25588D01*
X27008Y-25630D01*
X26972Y-25666D01*
X26070Y-25666D01*
X25910Y-25515D01*
X25825Y-25435D01*
X25825Y-25393D01*
X25783Y-25291D01*
X25704Y-25213D01*
X25630Y-25182D01*
X25630Y-25146D01*
X25667Y-25183D01*
X25730Y-25183D01*
X25790Y-25183D01*
X25845Y-25161D01*
X25887Y-25118D01*
X25910Y-25063D01*
X25910Y-24644D01*
X25887Y-24589D01*
X25845Y-24546D01*
X25790Y-24523D01*
X25730Y-24523D01*
X25667Y-24523D01*
X25630Y-24561D01*
X25630Y-24803D01*
X25872Y-24803D01*
X25910Y-24766D01*
X25910Y-24644D01*
X25910Y-25063D01*
X25910Y-24941D01*
X25872Y-24903D01*
X25630Y-24903D01*
X25630Y-24911D01*
X25530Y-24911D01*
X25530Y-24903D01*
X25530Y-24803D01*
X25530Y-24561D01*
X25492Y-24523D01*
X25430Y-24523D01*
X25370Y-24523D01*
X25315Y-24546D01*
X25273Y-24589D01*
X25250Y-24644D01*
X25250Y-24766D01*
X25287Y-24803D01*
X25530Y-24803D01*
X25530Y-24903D01*
X25287Y-24903D01*
X25250Y-24941D01*
X25250Y-25063D01*
X25273Y-25118D01*
X25315Y-25161D01*
X25370Y-25183D01*
X25430Y-25183D01*
X25460Y-25183D01*
X25390Y-25213D01*
X25311Y-25291D01*
X25269Y-25393D01*
X25269Y-25410D01*
X24711Y-24851D01*
X24630Y-24798D01*
X24598Y-24791D01*
X24590Y-24772D01*
X24463Y-24646D01*
X24298Y-24577D01*
X24119Y-24577D01*
X23954Y-24645D01*
X23827Y-24772D01*
X23758Y-24937D01*
X23758Y-25116D01*
X23826Y-25282D01*
X23953Y-25408D01*
X24118Y-25477D01*
X24297Y-25477D01*
X24463Y-25409D01*
X24514Y-25358D01*
X26234Y-27077D01*
X26306Y-27252D01*
X26459Y-27405D01*
X26519Y-27430D01*
X26519Y-28388D01*
X26460Y-28412D01*
X26307Y-28565D01*
X26287Y-28611D01*
X26287Y-27742D01*
X26205Y-27542D01*
X26052Y-27389D01*
X25852Y-27306D01*
X25636Y-27306D01*
X25576Y-27331D01*
X24642Y-26397D01*
X24658Y-26357D01*
X24658Y-26297D01*
X24658Y-25697D01*
X24635Y-25642D01*
X24593Y-25600D01*
X24538Y-25577D01*
X24478Y-25577D01*
X23878Y-25577D01*
X23823Y-25600D01*
X23781Y-25642D01*
X23758Y-25697D01*
X23758Y-25757D01*
X23758Y-26357D01*
X23781Y-26412D01*
X23823Y-26454D01*
X23878Y-26477D01*
X23938Y-26477D01*
X24024Y-26477D01*
X24032Y-26490D01*
X25225Y-27682D01*
X25200Y-27741D01*
X25200Y-27958D01*
X25282Y-28157D01*
X25435Y-28311D01*
X25635Y-28393D01*
X25851Y-28394D01*
X26051Y-28311D01*
X26204Y-28158D01*
X26287Y-27959D01*
X26287Y-27742D01*
X26287Y-28611D01*
X26224Y-28765D01*
X26223Y-28981D01*
X26306Y-29181D01*
X26459Y-29334D01*
X26659Y-29417D01*
X26875Y-29417D01*
X27075Y-29335D01*
X27228Y-29182D01*
X27311Y-28982D01*
X27311Y-28766D01*
X27228Y-28566D01*
X27076Y-28413D01*
X27016Y-28388D01*
X27016Y-27430D01*
X27075Y-27406D01*
X27228Y-27253D01*
X27311Y-27053D01*
X27311Y-26837D01*
X27228Y-26637D01*
X27076Y-26484D01*
X26876Y-26401D01*
X26660Y-26401D01*
X26460Y-26483D01*
X26401Y-26542D01*
X25899Y-26039D01*
X25915Y-26050D01*
X25917Y-26051D01*
X25921Y-26053D01*
X25965Y-26060D01*
X25992Y-26066D01*
X25997Y-26066D01*
X25998Y-26066D01*
X25998Y-26066D01*
X26972Y-26066D01*
X27007Y-26101D01*
X27109Y-26144D01*
X27220Y-26144D01*
X27322Y-26101D01*
X27400Y-26023D01*
X27443Y-25921D01*
X27443Y-25849D01*
X27542Y-25949D01*
X27542Y-27306D01*
X27367Y-27306D01*
X27312Y-27329D01*
X27270Y-27371D01*
X27247Y-27426D01*
X27247Y-27486D01*
X27247Y-28273D01*
X27270Y-28328D01*
X27312Y-28371D01*
X27367Y-28394D01*
X27427Y-28394D01*
X28214Y-28394D01*
X28269Y-28371D01*
X28312Y-28329D01*
X28335Y-28274D01*
X28335Y-28214D01*
X28335Y-27426D01*
X28312Y-27371D01*
X28270Y-27329D01*
X28215Y-27306D01*
X28155Y-27306D01*
X28039Y-27306D01*
X28039Y-25914D01*
X28020Y-25819D01*
X27967Y-25739D01*
X27886Y-25685D01*
X27834Y-25675D01*
X26710Y-24551D01*
X26710Y-24294D01*
X26687Y-24239D01*
X26660Y-24211D01*
X27551Y-24211D01*
X27626Y-24287D01*
X27746Y-24336D01*
X27875Y-24336D01*
X27994Y-24287D01*
X28070Y-24211D01*
X28165Y-24211D01*
X28220Y-24211D01*
X28220Y-24266D01*
X28243Y-24321D01*
X28285Y-24363D01*
X28340Y-24386D01*
X28399Y-24386D01*
X28499Y-24386D01*
X28421Y-24464D01*
X28379Y-24566D01*
X28379Y-24677D01*
X28421Y-24779D01*
X28496Y-24854D01*
X28384Y-24966D01*
X28278Y-24966D01*
X28158Y-25015D01*
X28067Y-25107D01*
X28017Y-25226D01*
X28017Y-25355D01*
X28066Y-25475D01*
X28158Y-25566D01*
X28277Y-25616D01*
X28406Y-25616D01*
X28526Y-25567D01*
X28617Y-25475D01*
X28667Y-25356D01*
X28667Y-25249D01*
X29236Y-24680D01*
X29280Y-24615D01*
X29280Y-24615D01*
X29282Y-24602D01*
X29295Y-24538D01*
X29295Y-24538D01*
X29295Y-24368D01*
X29305Y-24364D01*
X29347Y-24321D01*
X29370Y-24266D01*
X29370Y-24207D01*
X29370Y-23916D01*
X29393Y-23893D01*
X29393Y-30357D01*
M02*
